<svg width="12" height="8" viewBox="0 0 12 8" fill="none" xmlns="http://www.w3.org/2000/svg">
  <path d="M11.889 3.63004C11.8907 3.6327 11.8917 3.63504 11.8937 3.63704C11.915 3.67137 11.9347 3.70737 11.9503 3.74537C11.9513 3.74837 11.9523 3.75104 11.9537 3.75404C11.968 3.79104 11.9797 3.8297 11.9877 3.8697C11.988 3.8717 11.9883 3.87404 11.9887 3.8767C11.9953 3.91604 12 3.95704 12 3.9987C12 4.0407 11.9953 4.0817 11.9883 4.12137C11.988 4.1237 11.9877 4.1257 11.9873 4.12837C11.9797 4.16837 11.9677 4.2067 11.9533 4.2437C11.952 4.2467 11.951 4.2497 11.95 4.2527C11.9343 4.29037 11.915 4.3267 11.8933 4.36037C11.8913 4.36304 11.8903 4.3657 11.8887 4.36804C11.8643 4.40504 11.8367 4.43937 11.8053 4.47037L8.49067 7.80304C8.231 8.0637 7.811 8.0637 7.552 7.80304C7.29267 7.54237 7.29267 7.1197 7.552 6.85937L9.73333 4.66637L0.663667 4.66637C0.297334 4.66637 3.17417e-07 4.3677 3.49647e-07 3.99904C3.81877e-07 3.63037 0.297334 3.3317 0.663667 3.3317L9.73333 3.3317L7.552 1.13837C7.29267 0.87737 7.29267 0.45537 7.552 0.195037C7.68167 0.0647032 7.85167 -0.000963478 8.02133 -0.000963463C8.19133 -0.000963449 8.36133 0.0647032 8.491 0.195037L11.8053 3.52704C11.8367 3.55904 11.8647 3.5927 11.889 3.63004Z" fill="#CC0F14" />
</svg>
