<svg width="16" height="16" viewBox="0 0 16 16" fill="none" xmlns="http://www.w3.org/2000/svg">
  <path d="M8.54225 11.8401C8.54525 11.8371 8.54875 11.8356 8.55275 11.8331C8.60875 11.7966 8.65925 11.7546 8.70725 11.7076L13.7052 6.73612C13.9007 6.54162 13.9992 6.28662 13.9992 6.03162C13.9992 5.77712 13.9007 5.52212 13.7052 5.32762C13.3147 4.93862 12.6817 4.93862 12.2902 5.32762L9.00025 8.59962C8.14572 9.44948 7.30953 8.95373 6.99825 8.59962L3.70875 5.32762C3.31825 4.93862 2.68425 4.93862 2.29325 5.32762C1.90225 5.71612 1.90225 6.34612 2.29325 6.73562L7.29225 11.7076C7.33875 11.7546 7.39025 11.7961 7.44575 11.8326C7.44925 11.8351 7.45325 11.8366 7.45725 11.8396C7.50775 11.8721 7.56225 11.9011 7.61875 11.9246C7.62325 11.9261 7.62775 11.9276 7.63225 11.9296C7.68775 11.9511 7.74525 11.9691 7.80525 11.9806L7.81575 11.9821C7.87525 11.9926 7.93675 11.9996 7.99975 11.9996C8.06225 11.9996 8.12375 11.9926 8.18275 11.9826L8.19325 11.9811C8.25325 11.9691 8.31125 11.9516 8.36675 11.9301C8.37125 11.9281 8.37525 11.9266 8.37975 11.9251C8.43675 11.9016 8.49075 11.8721 8.54225 11.8401Z" fill="#CC0F14" />
</svg>
