<svg width="16" height="16" viewBox="0 0 16 16" fill="none" xmlns="http://www.w3.org/2000/svg">
  <path d="M13.8335 7.4465C13.836 7.4505 13.8375 7.454 13.8405 7.457C13.8725 7.5085 13.902 7.56251 13.9255 7.6195C13.927 7.62401 13.9285 7.628 13.9305 7.6325C13.952 7.688 13.9695 7.74601 13.9815 7.806C13.982 7.80901 13.9825 7.81251 13.983 7.8165C13.993 7.8755 14 7.937 14 7.9995C14 8 14 8 14 8C14 8.063 13.993 8.124 13.9825 8.1835C13.982 8.187 13.9815 8.19 13.981 8.194C13.9695 8.254 13.9515 8.3115 13.93 8.367C13.928 8.3715 13.9265 8.376 13.925 8.3805C13.9015 8.437 13.8725 8.4915 13.84 8.542C13.837 8.546 13.8355 8.55 13.833 8.5535C13.7965 8.609 13.755 8.6605 13.708 8.707C13.708 8.707 13.708 8.707 13.7075 8.707L8.736 13.706C8.3465 14.097 7.7165 14.097 7.328 13.706C6.939 13.315 6.939 12.681 7.328 12.2905L10.6 9.001L2.9955 9.001C2.446 9.001 2 8.553 2 8C2 7.447 2.446 6.999 2.9955 6.999L10.6 6.999L7.328 3.709C6.939 3.3175 6.939 2.6845 7.328 2.294C7.5225 2.0985 7.7775 2 8.032 2C8.287 2 8.542 2.0985 8.7365 2.294L13.708 7.292C13.7085 7.292 13.7085 7.292 13.7085 7.292C13.7555 7.34 13.797 7.3905 13.8335 7.4465Z" fill="#CC0F14" />
</svg>
