<svg width="8" height="8" viewBox="0 0 8 8" fill="none" xmlns="http://www.w3.org/2000/svg">
  <g clip-path="url(#clip0)">
    <path d="M7.889 3.63004C7.89067 3.6327 7.89167 3.63504 7.89367 3.63704C7.915 3.67137 7.93467 3.70737 7.95033 3.74537C7.95133 3.74837 7.95233 3.75104 7.95367 3.75404C7.968 3.79104 7.97967 3.8297 7.98767 3.8697C7.988 3.8717 7.98833 3.87404 7.98867 3.8767C7.99533 3.91604 8 3.95704 8 3.9987C8 3.99904 8 3.99904 8 3.99904C8 4.04104 7.99533 4.0817 7.98833 4.12137C7.988 4.1237 7.98767 4.1257 7.98733 4.12837C7.97967 4.16837 7.96767 4.2067 7.95333 4.2437C7.952 4.2467 7.951 4.2497 7.95 4.2527C7.93433 4.29037 7.915 4.3267 7.89333 4.36037C7.89133 4.36304 7.89033 4.3657 7.88867 4.36804C7.86433 4.40504 7.83667 4.43937 7.80533 4.47037C7.80533 4.47037 7.80533 4.47037 7.805 4.47037L4.49067 7.80304C4.231 8.0637 3.811 8.0637 3.552 7.80304C3.29267 7.54237 3.29267 7.1197 3.552 6.85937L5.73333 4.66637L0.663667 4.66637C0.297334 4.66637 3.17417e-07 4.3677 3.49647e-07 3.99904C3.81877e-07 3.63037 0.297334 3.3317 0.663667 3.3317L5.73333 3.3317L3.552 1.13837C3.29267 0.877369 3.29267 0.455369 3.552 0.195036C3.68167 0.0647028 3.85167 -0.000963828 4.02133 -0.000963813C4.19133 -0.000963798 4.36133 0.0647029 4.491 0.195036L7.80533 3.52704C7.80567 3.52704 7.80567 3.52704 7.80567 3.52704C7.837 3.55904 7.86467 3.5927 7.889 3.63004Z" />
  </g>
  <defs>
    <clipPath id="clip0">
      <rect width="8" height="8" fill="white" transform="matrix(1 8.74228e-08 8.74228e-08 -1 0 8)" />
    </clipPath>
  </defs>
</svg>
