<svg width="16" height="16" viewBox="0 0 16 16" fill="none" xmlns="http://www.w3.org/2000/svg">
  <path d="M13.8073 10.7733C14.318 10.7733 14.7307 10.354 14.7307 9.836L16 4.538C16 4.02 15.586 3.59933 15.0767 3.59933L3.914 2.30933C3.84867 2.30933 3.78667 2.31667 3.72467 2.32933L2.39133 1.38267C2.398 1.33 2.40667 1.278 2.40667 1.22267C2.40733 0.547333 1.868 0 1.204 0C0.539333 0 0 0.547333 0 1.22267C0 1.89867 0.538667 2.44667 1.204 2.44667C1.33533 2.44667 1.46067 2.41933 1.57933 2.37933L3.02867 3.408L4.57667 9.83533C4.57667 10.2207 4.80667 10.5513 5.13333 10.696L4.56333 12.6207C3.68867 12.6727 2.994 13.404 2.994 14.3053C2.994 15.24 3.74 15.9993 4.66067 15.9993C5.37733 15.9993 5.98267 15.5373 6.218 14.8913H11.3427C11.578 15.538 12.1833 16 12.9 16C13.8207 16 14.5667 15.2407 14.5667 14.306C14.5667 13.37 13.8207 12.612 12.9 12.612C12.228 12.612 11.6513 13.0187 11.388 13.6013H6.172C6.07467 13.388 5.93467 13.1993 5.76333 13.0447L6.43667 10.7733H13.8073Z" fill="white" />
</svg>
