<svg width="16" height="16" viewBox="0 0 16 16" fill="none" xmlns="http://www.w3.org/2000/svg">
  <g clip-path="url(#clip0)">
    <path d="M14.4126 5.60001H12.8133V4.79934H3.21328V5.60001H1.61328V4.79934C1.61328 3.91734 2.33128 3.19934 3.21328 3.19934H12.8133C13.6953 3.19934 14.4126 3.91734 14.4126 4.79934V5.60001Z" fill="#CC0F14" />
    <path d="M12.8109 2.40067H11.2109V1.6H4.81094V2.40067H3.21094V1.6C3.21094 0.717333 3.92894 0 4.81094 0H11.2109C12.0929 0 12.8109 0.717333 12.8109 1.6V2.40067Z" fill="#CC0F14" />
    <path d="M14.4117 6.40002H1.61172C0.729719 6.40002 0.0117188 7.11736 0.0117188 8.00002C0.0117188 8.06536 0.0197188 8.13069 0.0357188 8.19402L1.62905 14.564C1.77839 15.2767 2.37105 16 3.21172 16H12.8117C13.3311 16 14.0237 15.7627 14.3871 14.594L15.9871 8.19402C16.0031 8.13069 16.0111 8.06536 16.0111 8.00002C16.0124 7.11736 15.2937 6.40002 14.4117 6.40002ZM12.8484 14.1607C12.8084 14.2874 12.7744 14.3607 12.7524 14.3994H3.27839C3.24572 14.3587 3.20505 14.2807 3.18772 14.204L1.63705 8.00002H14.3877L12.8484 14.1607Z" fill="#CC0F14" />
    <path d="M10.4146 11.2H5.61328V12H10.4146V11.2Z" fill="#CC0F14" />
  </g>
  <defs>
    <clipPath id="clip0">
      <rect width="16" height="16" fill="white" />
    </clipPath>
  </defs>
</svg>
