<svg width="11" height="11" viewBox="0 0 11 11" fill="none" xmlns="http://www.w3.org/2000/svg">
  <path fill-rule="evenodd" clip-rule="evenodd" d="M2.12119 0.707108C1.73067 0.316584 1.0975 0.316584 0.706976 0.707108C0.316452 1.09763 0.316452 1.7308 0.706977 2.12132L4.24252 5.65686L0.706956 9.19242C0.316431 9.58294 0.316431 10.2161 0.706956 10.6066C1.09748 10.9972 1.73065 10.9972 2.12117 10.6066L5.65673 7.07107L9.19226 10.6066C9.58278 10.9971 10.2159 10.9971 10.6065 10.6066C10.997 10.2161 10.997 9.58291 10.6065 9.19239L7.07094 5.65686L10.6065 2.12135C10.997 1.73083 10.997 1.09766 10.6065 0.70714C10.2159 0.316616 9.58276 0.316616 9.19224 0.70714L5.65673 4.24265L2.12119 0.707108Z" fill="white" />
</svg>
