<svg width="200" height="56" viewBox="0 0 200 56" fill="none" xmlns="http://www.w3.org/2000/svg">
<g clip-path="url(#clip0)">
<path fill-rule="evenodd" clip-rule="evenodd" d="M0 16.274V16.567C0.989 17.174 8.948 16.806 10.753 16.969C12.175 17.098 16.854 16.819 17.317 17.087C17.42 17.476 17.303 17.51 16.901 17.496C16.621 17.486 16.696 17.444 16.472 17.437C14.856 17.383 11.885 17.614 9.743 17.504C9.094 17.471 8.556 17.449 7.913 17.416C7.281 17.384 6.581 17.573 5.941 17.635C4.539 17.77 3.233 17.561 1.886 17.466L1.683 18.093C2.238 18.398 2.235 18.458 2.612 18.719C3.279 18.634 3.074 18.295 3.77 18.759C4.512 19.254 7.369 19.153 8.21 18.985C8.865 18.854 13.642 18.627 14.235 18.815C14.042 18.951 13.804 18.886 13.563 19.151C14.035 19.417 14.707 19.561 15.108 19.873C14.587 19.931 13.803 19.805 13.376 20.04L13.481 20.132C14.47 20.763 16.515 20.31 17.202 20.754C16.54 21.358 15.599 20.435 15.167 21.204C15.739 21.376 16.358 21.411 16.55 21.672C15.923 22.094 15.736 21.325 15.293 22.324C14.673 22.062 14.21 22.173 13.466 22.074C13.27 21.74 13.423 21.792 13.165 21.489C12.728 21.638 13.07 21.604 12.759 21.863C12.404 22.159 12.429 21.751 12.389 22.284C13.227 22.689 14.944 22.149 15.448 22.795C14.751 23.174 13.121 22.595 12.162 23.101L11.233 23.508C12.388 23.946 12.596 23.821 14.07 23.852C15.027 23.872 16.227 24.086 17.085 24.001C18.133 23.899 19.036 23.876 20.102 23.887C20.754 23.893 20.949 23.958 21.227 24.407C21.463 24.79 21.636 24.993 21.661 25.505C20.628 25.608 15.549 25.369 14.144 25.19C13.605 25.122 12.421 24.552 11.998 24.837C12.152 25.286 12.147 24.967 12.54 25.157C13.187 25.471 12.502 25.224 12.663 25.662C12.995 25.817 13.341 25.829 13.676 25.95C14.839 26.367 13.628 26.507 16.985 26.748C18.724 26.873 20.191 27.196 21.922 27.297L22.362 28.058C22.375 28.082 22.406 28.149 22.413 28.171C22.464 28.341 22.455 28.227 22.417 28.336C22.07 28.472 21.779 28.38 21.448 28.473L20.565 28.788C20.271 28.884 20.093 29.113 19.803 29.229C19.525 29.339 17.719 29.585 16.832 29.886C16.046 30.153 16.547 30.429 15.183 30.668C16.654 31.629 15.641 30.772 16.577 31.265C17 31.49 17.146 31.5 17.362 31.81C17.605 32.161 17.442 32.089 17.927 32.145L17.954 32.628C18.806 32.893 18.966 32.573 19.068 33.557C19.668 33.486 19.899 33.66 20.491 33.504C21.179 33.324 21.245 33.284 21.921 33.598C22.579 33.904 24.195 34.01 24.578 34.297C24.036 34.562 21.944 34.687 20.596 35.142L19.749 35.508C19.72 35.522 19.628 35.567 19.603 35.579C19.582 35.591 19.546 35.608 19.528 35.617C19.509 35.626 19.476 35.641 19.451 35.656C19.599 35.93 19.807 35.875 19.902 36.195C19.298 36.307 18.431 36.713 18.152 37.084C18.215 37.519 18.27 37.56 18.626 37.683C18.394 37.379 18.387 37.425 18.459 36.955C18.917 37.045 18.802 37.162 19.075 37.493C18.946 37.789 19.132 37.497 18.675 37.777C20.466 38.216 20.108 37.848 20.767 37.936C21.156 37.987 21.264 38.134 21.801 38.152C22.244 38.168 23.776 38.118 24.099 38.33C24.354 38.497 24.412 38.876 24.754 38.994C24.917 39.052 26.915 39.091 27.031 39.044C27.048 39.06 27.066 39.068 27.073 39.099L27.205 39.264C27.3 39.355 27.109 39.34 27.457 39.425C27.774 39.503 27.934 39.317 28.103 39.191L27.57 38.976C27.885 38.829 28.59 38.646 28.946 38.798C29.267 38.935 28.996 38.779 29.099 38.955L29.141 39.072C29.797 38.884 30.245 39.162 30.589 39.423C31.638 39.154 31.863 39.681 34.164 39.522C34.811 39.477 35.528 39.672 36.154 39.539C36.707 39.422 36.378 39.382 37.077 39.448C37.552 39.494 37.897 39.371 38.147 39.422C38.163 39.425 38.189 39.438 38.205 39.442C38.223 39.447 38.248 39.461 38.267 39.466L38.875 39.577C39.408 39.62 40.104 39.594 40.615 39.438C41.361 39.209 40.813 39.338 41.425 39.47C41.986 39.591 44.713 39.478 45.413 39.419C50.548 38.985 56.166 39.103 61.401 38.898C66.755 38.689 72.099 38.497 77.477 38.493C80.191 38.49 82.905 38.493 85.616 38.431C86.984 38.4 88.403 38.462 89.74 38.419C91.07 38.377 92.302 38.292 93.656 38.324C94.898 38.352 96.49 38.442 97.656 38.348C98.362 38.291 98.558 38.197 99.469 38.267C100.423 38.34 100.521 38.302 101.394 38.189C101.99 38.111 102.783 38.272 103.291 38.242C104.095 38.196 104.224 38.082 105.12 38.218L121.293 38.527C121.936 38.557 122.557 38.658 123.202 38.667C123.765 38.674 123.653 38.617 124.073 38.519L124.365 38.549C124.808 38.642 124.406 38.592 124.857 38.576C125.54 38.551 130.023 39.033 132.544 38.959C134.252 38.91 134.606 39.136 135.379 39.192C135.867 39.229 135.714 39.063 136.285 39.203C137.037 39.386 137.11 39.533 138.007 39.361C138.584 39.251 140.84 39.52 141.893 39.549C142.229 39.558 142.559 39.561 142.816 39.62C144.357 39.985 143.649 39.663 145.604 39.755C145.908 39.769 146.207 39.803 146.513 39.821C147.126 39.856 147.114 39.716 147.509 39.729L149.327 39.942C151.61 40.316 150.097 40.127 150.752 40.45C151.405 40.772 151.783 40.206 152.333 40.354L153.222 40.496C153.587 40.54 153.841 40.566 154.109 40.422C153.802 39.927 152.632 40.009 151.936 39.771L151.663 39.656C151.462 39.374 151.961 39.636 152.825 39.503C153.413 39.412 153.486 39.44 154.051 39.532L154.172 39.337C154.528 38.877 154.145 39.373 155.557 39.416C155.806 39.424 156.647 39.497 156.877 39.643L156.027 39.791C156.113 39.955 156.245 39.917 156.27 39.924C156.832 40.087 157.424 39.929 158.079 39.758C158.794 39.571 158.601 39.392 158.991 38.845C159.004 38.826 159.027 38.808 159.04 38.79C159.065 38.752 159.233 38.761 159.17 38.206L158.49 37.845C159.068 37.606 161.844 37.857 162.688 37.895C163.505 37.932 164.112 37.874 164.904 37.859C165.521 37.847 166.38 38.022 167.041 38.064L173.651 38.223C174.48 38.175 174.12 38.296 174.58 38.385C175.366 38.538 174.852 38.031 176.556 38.522C177.498 38.793 177.209 38.481 177.348 38.405C177.848 38.129 178.942 38.303 179.577 38.337L188.519 38.459C189.052 38.451 190.322 38.633 190.593 38.584C191.711 38.383 191.371 38.606 191.873 38.366C192.085 38.264 192.075 38.226 192.324 38.184L191.617 37.421C191.388 37.028 190.9 37.423 190.226 36.574L189.568 36.695C189.961 35.766 191.577 35.972 192.638 35.97C193.573 35.969 193.55 35.991 194.273 35.692C194.647 35.537 195.539 35.52 195.81 35.248C195.652 34.756 195.52 35.061 195.12 35.121C194.584 35.2 194.731 35.006 194.618 34.462C193.675 34.148 192.981 34.316 192.048 34.12C191.514 34.008 191.549 33.911 190.835 33.867C190.284 33.834 190.079 33.755 189.607 33.605C189.743 32.989 189.664 33.458 189.428 33.016L190.289 32.846L189.743 32.663C190.239 32.486 191.046 32.083 191.449 32.287C191.286 32.458 191.139 32.479 191.023 32.695C191.531 32.92 192.053 32.713 192.114 32.184C191.7 31.922 191.371 32.115 191.266 31.394C191.72 31.15 191.749 31.342 192.156 31.546C192.39 31.664 192.93 31.771 193.229 31.866C193.078 31.411 192.574 31.446 192.041 31.258C191.823 31.182 191.609 31.087 191.377 31.012C190.935 30.871 190.871 30.98 190.733 30.621C191.154 30.474 190.984 30.843 191.584 30.4L191.321 29.837C191.339 29.817 191.372 29.768 191.379 29.785L191.552 29.541C191.555 29.533 191.564 29.508 191.562 29.492C190.422 28.92 189.444 28.711 188.086 28.445C188.219 27.929 188.293 28.153 188.567 27.832C188.862 27.486 188.515 27.395 188.616 27.153C190.481 26.806 190.157 27.383 192.455 26.286C193.007 26.022 192.602 25.978 193.197 25.803C194.737 25.35 194.958 25.562 195.338 25.47L196.247 25.039C196.14 24.877 196.287 24.997 196.035 24.853C195.848 24.746 195.505 24.715 195.416 24.471C195.134 23.696 197.074 24.419 197.358 24.422C198.14 24.429 198.787 24.414 199.54 24.499C199.378 23.771 199.522 24.318 199.015 23.917C199.536 23.303 199.467 24.252 200.328 23.769L199.771 23.212C198.921 23.255 199.079 23.453 198.324 23.043C197.839 22.778 197.474 22.725 196.857 22.713C196.608 22.063 196.233 22.15 195.552 22.147C194.941 22.144 194.377 22.168 193.887 22.033C192.027 21.521 185.326 21.059 184.196 20.651L184.463 20.414C185.203 19.932 184.736 19.966 185.041 19.472C186.199 19.205 187.73 19.436 188.646 18.642C188.872 18.448 189.117 18.013 189.169 17.59C188.945 17.067 188.63 16.923 188.098 16.686C187.785 16.546 187.654 16.487 187.474 16.299C187.33 16.149 187.147 15.898 187.094 15.611C187.638 15.46 187.44 15.331 188.089 15.572C188.529 15.736 188.772 15.642 189.237 15.725C190.244 15.906 190.813 15.994 191.224 15.229C190.599 15.053 189.754 15.105 189.497 14.629C189.518 14.612 189.559 14.57 189.57 14.595H189.942C190.56 14.803 190.326 14.746 190.997 14.783C191.916 14.834 191.644 15.079 192.467 14.527C192.247 13.911 192.217 14.309 191.565 14.299C191.278 14.295 191.188 14.28 190.884 14.298C190.279 14.334 190.662 14.388 190.294 14.152C190.042 13.991 190.065 13.997 189.72 13.924C189.069 13.784 188.387 13.764 187.837 13.407L188.2 12.683C188.864 12.66 189.005 13.047 189.394 12.589C189.225 12.381 187.72 11.94 187.317 11.855C184.379 11.239 186.665 10.715 183.553 9.97697C182.93 9.82897 182.353 9.96997 181.958 9.44597C181.944 9.42797 181.928 9.40297 181.915 9.38397L181.61 9.02997C182.155 8.15597 184.387 9.44897 185.488 8.69797C185.924 8.39997 185.745 8.04897 186.056 7.64297C186.826 7.48897 186.577 7.67797 187.087 7.76097L186.887 6.91297C186.237 6.85497 185.771 6.75997 185.192 6.70797C184.283 6.62697 184.801 6.37297 184.091 6.44097C183.922 6.45697 183.762 6.47697 183.589 6.48897L183.315 6.23297C183.133 6.09697 183.178 6.11297 182.879 6.07297C181.864 5.93597 180.788 5.95597 179.772 5.90797C176.919 5.77397 174.274 5.25497 171.579 4.97797C170.226 4.83897 168.848 4.67097 167.507 4.52797C166.934 4.46697 166.047 4.30797 165.616 4.28197C164.98 4.24297 164.337 4.20797 163.688 4.13997C163.173 4.08697 163.144 3.96597 162.856 3.99997C161.929 4.11097 160.756 3.90997 159.77 3.87197C158.323 3.81597 156.842 3.74597 155.454 3.76597C154.269 3.78297 152.841 3.41497 151.391 3.53497C150.388 3.61797 148.765 3.27897 147.619 3.22397C146.144 3.15397 144.706 3.05097 143.29 3.00597C140.727 2.92297 138.01 2.51597 135.414 2.47797C135.108 2.47397 134.546 2.52597 134.101 2.43397L127.821 2.05797C123.092 1.93697 118.299 1.64497 113.548 1.62297C112.888 1.61997 112.094 1.63297 111.446 1.54397C110.636 1.43297 110.802 1.13897 109.595 1.22197L100.815 1.24697C98.61 0.809973 86.609 1.26797 83.507 1.35397C80.575 1.43697 77.614 1.27197 74.658 1.25197C71.656 1.23097 68.612 1.16897 65.615 1.22397C64.201 1.24997 62.801 1.37597 61.398 1.41697C61.119 1.42497 60.556 1.44997 60.298 1.41097C59.774 1.33197 59.88 1.20397 59.444 1.29997C59.316 1.32797 59.375 1.32997 59.201 1.33397C58.707 1.34397 58.179 1.10297 57.752 0.979973C56.601 0.646973 55.67 0.805973 54.773 0.646973C54.477 0.594973 54.085 0.453973 53.805 0.403973C53.258 0.306973 52.399 0.421973 51.676 0.306973C51.354 0.255973 50.982 0.214973 50.662 0.204973L50.039 0.0349731H48.605C47.936 0.247973 44.87 0.187973 43.839 0.299973C42.347 0.462973 40.781 0.553973 39.251 0.699973C36.499 0.960973 29.091 2.17397 26.265 2.74297C25.576 2.88197 24.867 3.00897 24.155 3.13997C23.484 3.26397 22.775 3.58397 22.276 3.64997C20.33 3.90597 18.789 4.39997 18.063 4.48997C17.132 4.60497 13.815 4.34297 13.378 4.72897C13.691 5.05297 15.076 4.92697 15.756 4.95997C15.836 4.96297 16.009 4.97797 16.089 4.99997L16.371 5.13997C16.192 5.20297 15.601 5.41497 15.477 5.55397C15.173 5.89197 15.523 5.89097 14.938 6.33097C14.388 6.74497 13.539 6.66697 12.805 6.72797L13.131 7.19997C13.332 7.39897 13.896 7.99297 13.614 8.34697C13.498 8.49197 12.322 8.42497 12.059 8.42997C11.52 8.43997 10.997 8.41597 10.45 8.42497C9.78 8.43597 8.142 8.08497 7.592 8.60997C8.094 9.37097 11.503 8.79897 12.344 9.52797C12.047 9.68897 11.635 9.62997 11.217 9.62297L11.036 10.118C10.591 9.95497 11.023 9.84897 10.592 9.97897C10.347 10.053 10.635 10.216 10.251 9.88297C9.557 10.623 9.634 9.93497 8.728 10.307C8.722 10.326 8.727 10.357 8.728 10.367C8.809 11.106 8.971 10.216 8.803 10.963L8.141 10.883C7.734 11.353 8.231 11 7.48 11.411L6.234 11.993C5.788 12.16 5.438 11.984 5.031 11.876C4.924 11.848 4.519 11.75 4.416 11.741C4.187 11.721 4.269 11.703 4.046 11.769C3.754 11.856 4.008 11.721 3.834 11.905C4.509 12.29 6.167 12.522 7.038 12.544C7.637 12.559 7.833 12.443 8.031 12.928C7.494 13.135 6.519 12.724 6.045 13.1C6.512 13.346 10.518 13.663 11.014 13.407C10.864 13.003 10.871 13.307 10.474 12.984L11.155 12.963L11.356 13.499C11.708 13.504 11.992 13.507 12.343 13.478L14.092 13.584C15.267 13.736 16.934 13.446 18.806 13.7L18.144 14.183C17.874 14.268 17.796 14.164 17.336 14.26C16.596 14.414 15.596 14.635 14.906 14.488C14.378 14.375 14.669 14.457 13.757 14.47C13.367 14.475 13.248 14.669 12.972 14.666C12.764 14.664 12.624 14.513 12.277 14.494L10.455 14.451C9.744 14.431 9.078 14.484 8.364 14.386C7.477 14.264 5.537 13.474 5.53 15.347C5.804 15.469 6.366 15.516 6.818 15.652C6.243 16.223 4.451 16.035 3.519 16.055C2.81 16.07 0.373 16.066 0 16.274Z" fill="#CC0F14"/>
<path d="M162.13 16.112C161.16 17.209 158.594 21.156 157.18 22.66C156.891 22.942 156.786 23.224 156.786 23.443C156.786 23.788 157.021 24.007 157.258 24.007C157.389 24.007 157.521 23.944 157.624 23.819C158.672 22.504 159.982 20.874 160.978 19.684C161.109 20.154 161.161 20.623 161.161 21.094C161.161 22.597 160.638 24.101 160.297 25.198C160.166 25.637 160.062 26.012 160.062 26.295C160.062 26.482 160.114 26.639 160.245 26.702C160.534 26.858 161.058 26.983 161.372 26.983C161.634 26.983 161.713 26.702 161.87 26.388C162.865 24.414 164.751 21.47 166.218 19.653C166.271 19.59 166.323 19.559 166.349 19.559C166.48 19.559 166.506 20.06 166.506 20.844C166.506 22.597 166.271 25.606 166.165 26.388C166.113 26.827 166.034 27.328 166.034 27.611C166.034 27.861 166.27 27.956 166.532 27.956C166.846 27.956 167.214 27.83 167.345 27.549C168.261 25.574 169.021 22.066 171.378 22.066C172.53 22.066 172.924 23.476 173.396 24.729C173.815 25.856 174.208 26.703 175.177 26.703C176.774 26.703 178.215 24.698 178.818 23.946C179.158 23.507 179.29 23.163 179.29 22.913C179.29 22.63 179.106 22.474 178.896 22.474C178.765 22.474 178.634 22.537 178.53 22.63C178.058 23.131 176.618 25.105 175.753 25.105C175.256 25.105 175.15 23.507 174.862 21.91C174.549 20.187 173.92 18.463 172.715 18.463C171.039 18.463 169.362 20.781 168.236 22.536C168.602 21.283 169.493 17.837 169.493 16.019C169.493 15.299 169.362 14.798 168.996 14.798C168.864 14.798 168.707 14.861 168.497 15.017C166.69 16.332 165.118 18.996 163.861 21.063C164.124 20.061 164.227 18.776 164.227 17.492C164.227 15.675 163.966 15.424 163.599 15.424C163.151 15.423 162.496 15.705 162.13 16.112ZM151.81 18.65C152.831 18.65 153.303 20.467 153.303 21.251C153.303 23.632 150.422 25.73 149.138 25.73C149.007 25.73 148.903 25.699 148.798 25.668C149.217 23.726 150.5 18.65 151.81 18.65ZM144.686 22.628C144.423 25.667 144.083 28.894 144.083 31.902C144.083 33.091 144.135 34.283 144.266 35.38C144.319 35.787 144.66 35.943 145.079 35.943C145.551 35.943 146.1 35.692 146.231 35.221C147.279 31.744 148.143 27.954 148.352 27.076C149.322 27.296 150.212 27.389 151.024 27.389C154.115 27.389 156.028 25.979 157.546 23.881C157.834 23.505 157.94 23.192 157.94 22.973C157.94 22.66 157.73 22.534 157.521 22.534C157.416 22.534 157.285 22.566 157.206 22.659C156.028 24.037 154.718 25.917 151.994 26.23C153.984 25.321 156.054 22.847 156.054 19.683C156.054 17.646 154.247 16.111 152.491 16.111C150.946 16.111 150.108 17.333 149.531 18.241C148.327 20.12 146.519 28.924 145.577 33.341C146.152 26.48 146.65 21.467 149.06 13.479C149.112 13.322 149.138 13.197 149.138 13.104C149.138 12.508 148.431 11.662 148.038 11.662C147.933 11.662 147.854 11.725 147.802 11.882C145.943 17.615 145.759 20.058 143.297 22.659C143.061 22.91 142.956 23.16 142.956 23.411C142.956 23.786 143.219 24.069 143.428 24.069C143.507 24.069 143.559 24.037 143.612 23.975C144.161 23.349 144.476 22.879 144.686 22.628ZM139.865 14.515L135.569 15.173C135.963 12.855 136.434 10.223 137.534 7.937C137.769 7.937 138.373 8.5 139.132 9.222C139.499 10.411 139.787 12.572 139.865 14.515ZM133.685 26.138C134.26 23.162 134.732 20.28 135.204 17.773C136.514 17.272 139.265 16.175 139.997 15.956C140.207 18.682 140.652 23.443 140.679 26.294C140.679 26.575 140.757 26.669 140.888 26.669C141.124 26.669 141.491 26.199 141.517 25.698C141.648 24.006 141.831 18.336 141.831 15.486C142.067 15.36 142.407 15.11 142.407 14.765C142.407 14.358 142.093 14.233 141.804 14.202C141.726 12.51 141.726 9.847 141.097 7.372C140.494 6.84 139.054 6.12 138.425 5.931C138.529 5.712 138.739 5.273 138.739 4.96C138.739 4.772 138.66 4.646 138.425 4.646C137.168 4.646 136.12 5.022 135.988 5.492C135.91 5.492 135.832 5.492 135.753 5.492C135.491 5.492 135.23 5.523 135.203 5.712C135.203 5.743 135.203 5.774 135.203 5.805C135.203 6.056 135.334 6.243 135.438 6.369C134.522 8.562 133.972 13.105 133.684 15.328C133.421 15.36 132.871 15.36 132.741 15.611C132.505 16.018 132.269 17.021 132.269 17.804C132.269 18.367 132.373 18.492 132.478 18.492C132.663 18.492 133.082 18.335 133.369 18.242C133.605 16.738 132.191 25.353 132.191 26.888C132.191 27.076 132.295 27.139 132.453 27.139C132.846 27.14 133.579 26.638 133.685 26.138ZM127.633 16.488C127.24 19.558 126.429 21.532 125.486 22.535C125.512 22.222 125.512 22.222 125.512 21.909C125.512 20.123 124.438 19.716 123.835 19.716C122.762 19.716 122.237 20.969 122.237 21.846C122.237 22.786 122.761 23.57 123.652 23.851C123.285 24.478 122.578 24.697 121.844 24.697C121.006 24.697 120.743 23.319 120.743 21.564C120.743 18.963 121.163 17.93 121.503 17.053C121.687 16.582 120.639 16.113 120.272 16.113C120.194 16.113 120.116 16.113 120.089 16.176C119.068 19.748 117.941 20.907 116.343 22.756C116.134 23.006 116.055 23.226 116.055 23.414C116.055 23.789 116.318 24.04 116.527 24.04C116.631 24.04 116.711 24.008 116.789 23.915C117.209 23.444 118.439 21.972 118.649 21.597C118.701 23.789 119.199 27.392 121.399 27.392C123.363 27.392 124.752 25.857 125.275 23.789C126.061 23.444 126.637 22.724 126.9 22.379C126.952 23.538 126.952 26.546 128.21 26.546C129.44 26.546 131.353 24.29 131.641 23.883C131.798 23.633 131.876 23.382 131.876 23.163C131.876 22.818 131.72 22.568 131.51 22.568C131.406 22.568 131.301 22.63 131.196 22.756C130.883 23.163 129.992 24.479 129.441 24.479C129.048 24.479 128.891 23.226 128.891 22.161C128.891 20.563 129.284 18.308 129.939 16.772C129.939 16.647 128.655 16.397 128.001 16.397C127.791 16.395 127.633 16.425 127.633 16.488ZM106.181 27.548C106.757 25.511 107.072 24.101 108.04 23.256C109.402 22.065 110.45 22.41 110.975 21.939C111.079 23.224 111.996 26.764 113.228 26.764C114.747 26.764 115.768 25.229 116.763 23.944C117.051 23.569 117.157 23.256 117.157 23.005C117.157 22.66 116.947 22.472 116.738 22.472C116.633 22.472 116.528 22.535 116.45 22.628C115.401 24.038 114.747 24.728 114.171 24.728C113.595 24.728 113.28 22.723 113.28 19.434C113.28 18.399 113.621 16.959 114.013 16.364C114.066 16.301 114.039 16.207 114.039 16.176C114.039 16.145 113.986 16.113 113.882 16.113C113.332 16.113 111.472 16.709 111.446 16.833C111.079 19.183 111.131 20.186 110.555 20.78C109.769 21.564 108.302 20.78 107.071 22.535C107.438 21.282 108.355 17.93 108.355 16.113C108.355 15.361 108.198 14.86 107.805 14.86C107.673 14.86 107.516 14.891 107.333 15.017C105.552 16.113 101.779 20.969 100.339 22.692C100.051 23.037 99.9463 23.319 99.9463 23.538C99.9463 23.851 100.155 24.039 100.391 24.039C100.522 24.039 100.653 23.976 100.732 23.882C101.858 22.472 103.273 20.749 104.817 19.778C104.974 19.684 105.132 19.59 105.184 19.59C105.237 19.59 105.315 19.778 105.315 20.091C105.315 21.469 104.529 25.385 104.294 26.826C104.242 27.076 104.19 27.453 104.19 27.61C104.19 28.017 104.556 28.204 104.975 28.204C105.447 28.205 106.076 27.955 106.181 27.548ZM91.7223 16.488C91.3293 19.558 90.4653 21.595 89.4703 22.629C89.2343 22.88 89.1303 23.13 89.1303 23.349C89.1303 23.694 89.3653 23.945 89.5753 23.945C89.6803 23.945 89.7853 23.914 89.8633 23.82C90.2303 23.413 90.7013 22.755 90.9893 22.379C91.0423 23.538 91.0423 26.546 92.2993 26.546C93.5303 26.546 95.7053 24.509 96.1503 23.413C96.3073 24.665 96.8833 26.075 97.8793 26.075C99.2673 26.075 100.42 24.29 100.708 23.883C100.865 23.633 100.944 23.382 100.944 23.163C100.944 22.818 100.787 22.568 100.577 22.568C100.473 22.568 100.368 22.63 100.263 22.756C99.9493 23.163 98.8753 24.447 98.5873 24.479C97.9323 24.479 97.9323 21.377 97.9323 19.654C97.9323 19.529 97.4083 19.247 97.0153 19.247C96.8313 19.247 96.6743 19.31 96.6483 19.497C96.2553 21.314 94.7893 24.008 93.5573 24.008C93.1643 24.008 92.9813 23.225 92.9813 22.16C92.9813 20.562 93.3743 18.307 94.0283 16.771C94.0283 16.646 92.7453 16.396 92.0903 16.396C91.8793 16.395 91.7223 16.425 91.7223 16.488ZM73.0733 16.112C72.1043 17.209 69.5373 21.156 68.1223 22.66C67.8343 22.942 67.7293 23.224 67.7293 23.443C67.7293 23.788 67.9653 24.007 68.2013 24.007C68.3323 24.007 68.4633 23.944 68.5683 23.819C69.6163 22.504 70.9253 20.874 71.9213 19.684C72.0523 20.154 72.1053 20.623 72.1053 21.094C72.1053 22.597 71.5813 24.101 71.2413 25.198C71.1103 25.637 71.0053 26.012 71.0053 26.295C71.0053 26.482 71.0583 26.639 71.1893 26.702C71.4773 26.858 72.0013 26.983 72.3153 26.983C72.5773 26.983 72.6563 26.702 72.8133 26.388C73.8093 24.414 75.6943 21.47 77.1623 19.653C77.2143 19.59 77.2663 19.559 77.2933 19.559C77.4243 19.559 77.4503 20.06 77.4503 20.844C77.4503 22.597 77.2143 25.606 77.1103 26.388C77.0583 26.827 76.9793 27.328 76.9793 27.611C76.9793 27.861 77.2143 27.956 77.4773 27.956C77.7913 27.956 78.1583 27.83 78.2893 27.549C79.2063 25.574 79.9653 22.066 82.3223 22.066C83.4753 22.066 83.8683 23.476 84.3403 24.729C84.7583 25.856 85.1523 26.703 86.1213 26.703C87.7183 26.703 89.1593 24.698 89.7613 23.946C90.1023 23.507 90.2333 23.163 90.2333 22.913C90.2333 22.63 90.0503 22.474 89.8403 22.474C89.7093 22.474 89.5783 22.537 89.4733 22.63C89.0023 23.131 87.5603 25.105 86.6973 25.105C86.1993 25.105 86.0943 23.507 85.8063 21.91C85.4923 20.187 84.8643 18.463 83.6593 18.463C81.9833 18.463 80.3063 20.781 79.1803 22.536C79.5473 21.283 80.4373 17.837 80.4373 16.019C80.4373 15.299 80.3063 14.798 79.9393 14.798C79.8083 14.798 79.6513 14.861 79.4413 15.017C77.6343 16.332 76.0623 18.996 74.8053 21.063C75.0673 20.061 75.1723 18.776 75.1723 17.492C75.1723 15.675 74.9103 15.424 74.5443 15.424C74.0943 15.423 73.4393 15.705 73.0733 16.112ZM62.7523 18.65C63.7733 18.65 64.2453 20.467 64.2453 21.251C64.2453 23.632 61.3643 25.73 60.0803 25.73C59.9493 25.73 59.8443 25.699 59.7403 25.668C60.1593 23.726 61.4433 18.65 62.7523 18.65ZM55.6273 22.628C55.3653 25.667 55.0253 28.894 55.0253 31.902C55.0253 33.091 55.0773 34.283 55.2083 35.38C55.2613 35.787 55.6023 35.943 56.0203 35.943C56.4923 35.943 57.0423 35.692 57.1733 35.221C58.2203 31.744 59.0853 27.954 59.2943 27.076C60.2643 27.296 61.1533 27.389 61.9663 27.389C65.0573 27.389 66.9693 25.979 68.4883 23.881C68.7763 23.505 68.8813 23.192 68.8813 22.973C68.8813 22.66 68.6723 22.534 68.4623 22.534C68.3583 22.534 68.2263 22.566 68.1483 22.659C66.9693 24.037 65.6603 25.917 62.9353 26.23C64.9263 25.321 66.9953 22.847 66.9953 19.683C66.9953 17.646 65.1883 16.111 63.4333 16.111C61.8883 16.111 61.0503 17.333 60.4733 18.241C59.2683 20.12 57.4603 28.924 56.5183 33.341C57.0943 26.48 57.5923 21.467 60.0013 13.479C60.0533 13.322 60.0793 13.197 60.0793 13.104C60.0793 12.508 59.3713 11.662 58.9793 11.662C58.8753 11.662 58.7963 11.725 58.7443 11.882C56.8843 17.615 56.7013 20.058 54.2383 22.659C54.0033 22.91 53.8983 23.16 53.8983 23.411C53.8983 23.786 54.1603 24.069 54.3693 24.069C54.4483 24.069 54.5013 24.037 54.5533 23.975C55.1043 23.349 55.4183 22.879 55.6273 22.628ZM42.2433 23.819C42.4263 23.663 42.5833 23.443 42.7413 23.256C42.4533 23.944 42.2173 24.665 42.2173 25.573C42.2173 27.014 43.1603 27.203 44.0503 27.203C46.8003 27.203 48.5823 24.164 49.4463 22.974C49.2893 23.475 49.1843 24.039 49.1843 24.697C49.1843 26.075 50.1533 26.702 50.9923 26.702C52.4063 26.702 53.8733 24.915 54.6063 23.85C54.8683 23.475 54.9723 23.162 54.9723 22.911C54.9723 22.597 54.7893 22.41 54.6063 22.41C54.5013 22.41 54.4223 22.441 54.3443 22.535C53.6893 23.287 52.4583 25.01 51.7253 25.01C51.3843 25.01 51.2533 24.635 51.2533 24.039C51.2533 22.88 51.6983 20.906 51.9863 19.559C52.0383 19.34 52.0653 19.184 52.0653 19.058C52.0653 18.713 51.6193 18.432 51.1483 18.432C50.8083 18.432 50.4683 18.589 50.2843 18.902C49.2103 20.657 46.9053 24.76 44.9143 24.76C44.4953 24.76 44.2863 24.415 44.2863 23.977C44.2863 23.319 44.4953 22.724 44.9673 21.972C46.2773 19.936 48.6873 18.056 51.8033 16.553C51.8813 16.521 51.9343 16.459 51.9343 16.397C51.9343 16.114 51.0173 15.739 50.5723 15.739C50.4683 15.739 50.4153 15.739 50.3893 15.739C46.8013 16.49 43.4743 20.719 42.0863 22.38C41.7723 22.756 41.6413 23.132 41.6413 23.414C41.6413 23.727 41.7983 23.946 41.9823 23.946C42.0603 23.944 42.1383 23.914 42.2433 23.819ZM30.4303 7.936C30.4303 8.124 30.4303 8.311 30.4303 8.531C30.4303 13.136 29.6703 23.224 29.4873 26.451C29.4873 26.67 29.8273 26.796 30.3253 26.796C30.8753 26.796 31.2943 26.67 31.3213 26.451C31.6873 23.569 31.9243 19.934 32.1073 17.679C32.4483 18.431 33.0763 20.531 34.2813 23.13C35.1713 25.041 36.3773 26.764 37.4763 26.764C39.4933 26.764 40.4883 26.231 42.2173 23.944C42.3753 23.725 42.4263 23.505 42.4263 23.318C42.4263 22.973 42.2433 22.66 42.0333 22.66C41.9283 22.66 41.7973 22.754 41.6923 22.911C40.5923 24.477 39.6753 24.539 39.1783 24.539C38.6803 24.539 38.2353 24.164 37.5803 23.318C36.2963 21.595 34.7253 18.368 34.1493 15.579C35.7473 14.389 39.6763 10.473 40.8283 7.34C40.9073 7.152 40.9333 6.933 40.9333 6.714C40.9333 5.993 40.4873 5.429 40.2003 5.429C39.7023 5.429 38.2613 5.962 38.2613 6.212C38.2613 6.369 38.3663 6.369 38.4713 6.369C38.6023 6.401 38.7603 6.401 38.7603 6.933C38.7603 9 34.0713 14.389 32.3683 15.642C32.5253 13.825 32.8403 10.536 32.8403 8.499C32.8403 6.995 32.7873 6.902 32.2643 6.902C31.5043 6.902 30.4303 7.56 30.4303 7.936Z" fill="white"/>
<path d="M166.872 48.558H168.277V51.298H170.704V48.558H172.099V55.818H170.704V52.633H168.277V55.818H166.872V48.558ZM165.224 48.558V55.818H163.849V51.274L161.114 55.818H159.926V48.558H161.301V53.251L164.078 48.558H165.224ZM154.981 48.558H158.996V49.923H157.672V55.818H156.266V49.923H154.982V48.558H154.981ZM151.393 51.398H151.836C152.185 51.398 152.426 51.373 152.563 51.325C152.699 51.274 152.805 51.193 152.884 51.078C152.962 50.964 153.001 50.826 153.001 50.662C153.001 50.381 152.891 50.175 152.672 50.047C152.513 49.951 152.217 49.903 151.785 49.903H151.392V51.398H151.393ZM150.018 48.558H151.486C152.28 48.558 152.851 48.63 153.201 48.777C153.553 48.924 153.83 49.162 154.032 49.489C154.234 49.816 154.336 50.209 154.336 50.667C154.336 51.174 154.202 51.596 153.937 51.931C153.672 52.267 153.312 52.501 152.855 52.632C152.587 52.707 152.1 52.745 151.394 52.745V55.818H150.019V48.558H150.018ZM145.467 50.487L144.483 52.986H146.446L145.467 50.487ZM144.769 48.558H146.161L148.955 55.818H147.518L146.952 54.322H143.976L143.396 55.818H141.958L144.769 48.558ZM136.289 48.558H137.685V51.069L139.65 48.558H141.317L138.781 51.798L141.562 55.818H139.922L137.685 52.585V55.818H136.289V48.558ZM126.563 48.558H127.968V51.298H130.395V48.558H131.791V55.818H130.395V52.633H127.968V55.818H126.563V48.558ZM124.915 48.558V55.818H123.54V51.274L120.805 55.818H119.617V48.558H120.992V53.251L123.768 48.558H124.915ZM114.573 53.93C114.939 54.441 115.369 54.696 115.86 54.696C116.188 54.696 116.452 54.603 116.654 54.418C116.855 54.232 116.956 53.986 116.956 53.681C116.956 53.379 116.858 53.129 116.661 52.932C116.464 52.734 116.057 52.634 115.438 52.634H115.139V51.4H115.436C115.801 51.4 116.078 51.317 116.268 51.15C116.457 50.981 116.551 50.756 116.551 50.473C116.551 50.214 116.472 50.009 116.314 49.859C116.157 49.708 115.948 49.631 115.687 49.631C115.378 49.631 115.06 49.784 114.735 50.089L113.921 49.181C114.358 48.787 114.724 48.551 115.017 48.473C115.31 48.396 115.581 48.358 115.828 48.358C116.421 48.358 116.919 48.53 117.322 48.875C117.725 49.221 117.927 49.685 117.927 50.272C117.927 50.531 117.881 50.784 117.79 51.03C117.699 51.278 117.446 51.539 117.03 51.815C117.884 52.194 118.31 52.841 118.31 53.756C118.31 54.432 118.084 54.974 117.631 55.385C117.178 55.795 116.595 56.001 115.884 56.001C115.436 56.001 115.032 55.92 114.677 55.756C114.322 55.593 113.934 55.241 113.517 54.701L114.573 53.93ZM109.665 50.487L108.681 52.986H110.644L109.665 50.487ZM108.967 48.558H110.359L113.154 55.818H111.716L111.15 54.322H108.174L107.594 55.818H106.156L108.967 48.558ZM102.059 48.558H105.668V49.912H103.434V55.817H102.059V48.558ZM97.5062 50.487L96.5232 52.986H98.4862L97.5062 50.487ZM96.8102 48.558H98.2022L100.996 55.818H99.5592L98.9922 54.322H96.0172L95.4372 55.818H93.9992L96.8102 48.558ZM86.1882 48.558H87.5282L89.2182 53.622L90.9172 48.558H92.2532L93.4692 55.818H92.1362L91.3612 51.233L89.8242 55.818H88.6042L87.0742 51.233L86.2842 55.818H84.9362L86.1882 48.558ZM81.2862 52.511H83.7942V53.766H81.2862V52.511ZM76.2922 48.558H80.3062V49.923H78.9812V55.818H77.5752V49.923H76.2912V48.558H76.2922ZM71.7522 48.558H75.7152V49.912H73.1272V51.217H75.7152V52.552H73.1272V54.462H75.7152V55.817H71.7522V48.558ZM64.8552 48.558H66.2602V51.298H68.6872V48.558H70.0832V55.818H68.6872V52.633H66.2602V55.818H64.8552V48.558ZM60.5682 51.398H61.0112C61.3602 51.398 61.6002 51.373 61.7382 51.325C61.8742 51.274 61.9802 51.193 62.0602 51.078C62.1372 50.964 62.1762 50.826 62.1762 50.662C62.1762 50.381 62.0662 50.175 61.8472 50.047C61.6882 49.951 61.3922 49.903 60.9602 49.903H60.5682V51.398ZM59.1932 48.558H60.6602C61.4542 48.558 62.0262 48.63 62.3762 48.777C62.7272 48.924 63.0042 49.162 63.2072 49.489C63.4092 49.816 63.5102 50.209 63.5102 50.667C63.5102 51.174 63.3762 51.596 63.1112 51.931C62.8462 52.267 62.4862 52.501 62.0292 52.632C61.7612 52.707 61.2742 52.745 60.5682 52.745V55.818H59.1932V48.558ZM53.9562 48.558H57.9192V49.912H55.3312V51.217H57.9192V52.552H55.3312V54.462H57.9192V55.817H53.9562V48.558ZM48.9912 48.558H53.0052V49.923H51.6802V55.818H50.2752V49.923H48.9902V48.558H48.9912ZM42.8122 48.558H44.2172V51.298H46.6432V48.558H48.0392V55.818H46.6432V52.633H44.2172V55.818H42.8122V48.558ZM41.1642 48.558V55.818H39.7892V51.274L37.0542 55.818H35.8662V48.558H37.2412V53.251L40.0182 48.558H41.1642Z" fill="black"/>
</g>
<defs>
<clipPath id="clip0">
<rect width="200" height="56" fill="white"/>
</clipPath>
</defs>
</svg>
