<svg width="46" height="40" viewBox="0 0 46 40" fill="none" xmlns="http://www.w3.org/2000/svg">
<path fill-rule="evenodd" clip-rule="evenodd" d="M0 16.0301V16.3187C0.22709 16.9187 2.0553 16.5559 2.46924 16.7173C2.7955 16.843 3.86915 16.5687 3.9755 16.8316C3.99994 17.2173 3.97407 17.2516 3.88064 17.2359C3.8174 17.2259 3.83321 17.1844 3.78291 17.1787C3.41209 17.1244 2.72939 17.3516 2.23784 17.2459C2.0898 17.213 1.96619 17.1902 1.81815 17.1559C1.67299 17.1244 1.51201 17.3116 1.36541 17.373C1.04346 17.5059 0.743071 17.3002 0.434057 17.2059L0.388064 17.8259C0.514545 18.1273 0.514545 18.1873 0.600781 18.4445C0.753132 18.3602 0.707139 18.0245 0.866677 18.4845C1.03628 18.973 1.69311 18.8716 1.88571 18.7073C2.03518 18.5759 3.13326 18.353 3.2698 18.5402C3.22525 18.6745 3.17063 18.6073 3.11601 18.8702C3.22381 19.1345 3.37903 19.273 3.46958 19.583C3.35029 19.6416 3.17063 19.5159 3.07289 19.7473L3.09733 19.8388C3.32586 20.4616 3.79441 20.0145 3.95251 20.453C3.80159 21.0488 3.58456 20.1373 3.48539 20.9002C3.61618 21.0673 3.75991 21.1016 3.80303 21.3602C3.65787 21.7759 3.61618 21.0173 3.51414 22.0031C3.37185 21.7445 3.26549 21.8545 3.09445 21.7573C3.04702 21.4288 3.08152 21.4816 3.02259 21.1802C2.92198 21.3288 3.00103 21.2945 2.92917 21.5488C2.84724 21.8416 2.85299 21.4402 2.84437 21.9659C3.03553 22.3659 3.43078 21.8331 3.54576 22.4702C3.38622 22.8474 3.01109 22.2731 2.79119 22.7731L2.57847 23.1745C2.84293 23.6088 2.89036 23.4831 3.22956 23.5131C3.44946 23.5331 3.72542 23.7445 3.92232 23.6616C4.16235 23.5602 4.37075 23.5359 4.61509 23.5488C4.76457 23.5559 4.80912 23.6202 4.87236 24.0631C4.92698 24.4402 4.96722 24.6402 4.97297 25.1459C4.73582 25.2488 3.57019 25.0088 3.24681 24.8359C3.1232 24.7659 2.85155 24.2031 2.75382 24.4859C2.78975 24.9302 2.78831 24.6159 2.87886 24.8031C3.02834 25.1131 2.87024 24.8702 2.90761 25.3031C2.98378 25.4531 3.06427 25.4674 3.14045 25.5845C3.40778 25.9974 3.13039 26.1345 3.90077 26.3745C4.30033 26.4974 4.63665 26.816 5.03478 26.916L5.13539 27.6688C5.13826 27.6917 5.14545 27.756 5.14688 27.7803C5.15982 27.9445 5.15694 27.8331 5.14832 27.9417C5.06927 28.076 5.00172 27.9831 4.92698 28.076L4.72432 28.3888C4.65677 28.4831 4.61509 28.7103 4.54898 28.8217C4.48574 28.9331 4.07036 29.176 3.86771 29.4717C3.68661 29.7374 3.80303 30.0074 3.48827 30.2446C3.82459 31.1931 3.59319 30.3474 3.80734 30.8331C3.90508 31.0531 3.93813 31.0646 3.98844 31.3717C4.04449 31.7174 4.00712 31.6474 4.11779 31.7003L4.12354 32.1774C4.31901 32.4403 4.35494 32.1246 4.37938 33.096C4.51736 33.0232 4.57054 33.196 4.70708 33.0432C4.86374 32.8646 4.87955 32.826 5.03621 33.1375C5.18713 33.436 5.55794 33.5446 5.64562 33.826C5.52201 34.086 5.04052 34.2117 4.73151 34.6603L4.53748 35.0203C4.53029 35.0346 4.50873 35.0789 4.50298 35.0932C4.49867 35.1046 4.49005 35.1218 4.48574 35.1289C4.48142 35.1403 4.47424 35.1518 4.46849 35.1646C4.50155 35.4375 4.55041 35.3818 4.57197 35.6975C4.43256 35.8089 4.23565 36.2103 4.17097 36.5761C4.18391 37.0061 4.19684 37.0475 4.27877 37.1675C4.22559 36.8632 4.22415 36.9103 4.2414 36.4475C4.34632 36.5375 4.32045 36.6546 4.38225 36.9803C4.35207 37.2732 4.39519 36.9832 4.2917 37.2589C4.70277 37.6946 4.62084 37.3289 4.77175 37.4146C4.86087 37.4675 4.88674 37.6103 5.0089 37.6289C5.11095 37.6461 5.46308 37.5961 5.53639 37.8046C5.59531 37.9689 5.60825 38.3432 5.6873 38.4604C5.72036 38.5189 6.18028 38.5575 6.20615 38.5104C6.21047 38.5275 6.21478 38.5361 6.21622 38.5661L6.2464 38.7275C6.26796 38.8175 6.2234 38.8032 6.30389 38.8861C6.37719 38.9646 6.41456 38.7804 6.45337 38.6575L6.3312 38.4461C6.4045 38.2975 6.56547 38.1189 6.6474 38.2675C6.7207 38.4046 6.6589 38.2504 6.68189 38.4204L6.69052 38.5404C6.84143 38.3532 6.94348 38.6275 7.02253 38.8832C7.26399 38.6175 7.31573 39.1404 7.84321 38.9804C7.99125 38.9389 8.15654 39.1304 8.30027 38.9975C8.42675 38.8832 8.35201 38.8418 8.51155 38.9075C8.62078 38.9518 8.69983 38.8318 8.75732 38.8818C8.76019 38.8846 8.76594 38.8961 8.77026 38.8989C8.77313 38.9046 8.78032 38.9189 8.78319 38.9246L8.92261 39.0361C9.04477 39.0775 9.20575 39.0532 9.32217 38.8961C9.49464 38.6732 9.36816 38.7989 9.50901 38.9289C9.63693 39.0489 10.2636 38.9375 10.4246 38.8789C11.6031 38.4518 12.8924 38.5689 14.0954 38.3661C15.3242 38.1589 16.5517 37.9704 17.7848 37.9675C18.4086 37.9646 19.031 37.9675 19.6533 37.9061C19.9681 37.8732 20.2943 37.9361 20.6005 37.8946C20.9052 37.8532 21.1883 37.7689 21.5002 37.7975C21.7833 37.8275 22.1499 37.9175 22.4186 37.8261C22.581 37.7704 22.6256 37.6775 22.8354 37.7446C23.0539 37.8175 23.0755 37.7803 23.2767 37.6689C23.4132 37.5903 23.5972 37.7504 23.7122 37.7189C23.8961 37.6746 23.9263 37.5603 24.1319 37.6961L27.8443 38.0004C27.9924 38.0304 28.1347 38.1318 28.2827 38.1375C28.4135 38.1432 28.3848 38.0875 28.4839 37.9918L28.5515 38.0218C28.6521 38.1118 28.5601 38.0604 28.6636 38.0475C28.8188 38.0218 29.8493 38.4989 30.43 38.4275C30.8195 38.3746 30.9029 38.6004 31.0796 38.6561C31.1903 38.6946 31.1558 38.5304 31.288 38.6675C31.462 38.8461 31.4778 38.9946 31.6833 38.8204C31.8155 38.7146 32.3315 38.9789 32.5744 39.0104C32.652 39.0189 32.7268 39.0218 32.7857 39.0804C33.1393 39.4404 32.9768 39.1218 33.4253 39.2118C33.4957 39.2289 33.5647 39.2589 33.6351 39.2789C33.7774 39.3147 33.7731 39.1732 33.8636 39.1889L34.2819 39.3961C34.8051 39.7675 34.4587 39.5832 34.6082 39.8989C34.7591 40.2204 34.8453 39.6589 34.9718 39.8075L35.1773 39.9475C35.2621 39.9918 35.321 40.0175 35.3814 39.8718C35.311 39.3832 35.0422 39.4675 34.8827 39.2304L34.8194 39.1161C34.7734 38.8375 34.887 39.0989 35.0853 38.9661C35.2233 38.8761 35.2377 38.9018 35.367 38.9946L35.3958 38.8018C35.4791 38.3475 35.39 38.8375 35.7149 38.8804C35.7709 38.8889 35.9649 38.9618 36.0167 39.1032L35.8212 39.2518C35.8413 39.4132 35.873 39.3747 35.8787 39.3832C36.0066 39.5447 36.1403 39.3861 36.2926 39.2189C36.4565 39.0346 36.4119 38.8561 36.5025 38.3175C36.5054 38.3004 36.5111 38.2818 36.514 38.2646C36.5197 38.2261 36.5585 38.2361 36.5442 37.6875L36.3889 37.3303C36.5226 37.0961 37.1608 37.3418 37.3534 37.3803C37.5402 37.4161 37.681 37.3575 37.8621 37.3446C38.0044 37.3332 38.2013 37.5061 38.3523 37.5489L39.87 37.7046C40.0626 37.6575 39.9793 37.7746 40.0842 37.8632C40.2653 38.0132 40.1474 37.5146 40.5369 38.0004C40.7525 38.2689 40.6864 37.9589 40.7194 37.8832C40.8344 37.6103 41.0845 37.7832 41.2297 37.8161L43.2836 37.9361C43.4072 37.9275 43.6975 38.1089 43.7579 38.0618C44.0166 37.8604 43.9375 38.0846 44.0539 37.8446C44.1014 37.7446 44.0999 37.7075 44.1545 37.6661L43.995 36.9103C43.9433 36.5246 43.8297 36.9132 43.6745 36.0789L43.525 36.196C43.6156 35.2803 43.9835 35.4818 44.2293 35.4818C44.4434 35.4789 44.4391 35.5046 44.6044 35.206C44.6921 35.056 44.8962 35.0389 44.958 34.7675C44.922 34.2817 44.8904 34.5832 44.8013 34.6418C44.6748 34.7203 44.7108 34.5303 44.6835 33.9917C44.4679 33.6817 44.3069 33.846 44.0942 33.6546C43.9734 33.546 43.9806 33.4475 43.8153 33.4032C43.6889 33.3732 43.6429 33.2946 43.5351 33.146C43.5653 32.5374 43.548 32.9974 43.4948 32.566L43.6917 32.396L43.5681 32.2174C43.6802 32.0417 43.8671 31.646 43.9576 31.8432C43.9217 32.0132 43.8872 32.036 43.8628 32.2474C43.9778 32.4674 44.097 32.2646 44.1129 31.7446C44.018 31.4846 43.9404 31.6746 43.9174 30.9631C44.0209 30.7231 44.0266 30.9103 44.1215 31.1131C44.1747 31.2303 44.2997 31.3331 44.3687 31.4289C44.3356 30.9803 44.2178 31.0131 44.0956 30.8289C44.0467 30.7531 43.9979 30.6617 43.9433 30.586C43.8412 30.446 43.8283 30.5531 43.7952 30.2003C43.893 30.0517 43.8541 30.4174 43.9921 29.9831L43.9318 29.4246C43.9361 29.4074 43.9418 29.3546 43.9433 29.3746L43.9835 29.1346C43.9849 29.126 43.9849 29.1017 43.9849 29.0846C43.7248 28.5203 43.5006 28.3145 43.1887 28.0517C43.2189 27.5417 43.2361 27.7645 43.2979 27.446C43.3669 27.1031 43.2864 27.0131 43.308 26.7731C43.7377 26.4331 43.663 26.9988 44.1905 25.9188C44.317 25.6588 44.2235 25.6145 44.3615 25.4417C44.7136 24.9945 44.7639 25.2045 44.8516 25.1131L45.0615 24.6888C45.037 24.5274 45.0701 24.6474 45.014 24.5031C44.9723 24.3974 44.8933 24.3674 44.8703 24.1259C44.8071 23.3616 45.2512 24.0745 45.3187 24.0774C45.497 24.0859 45.6464 24.0702 45.8203 24.1531C45.783 23.4359 45.8146 23.9759 45.6982 23.5802C45.8175 22.9731 45.8017 23.9102 46 23.4331L45.8721 22.8831C45.6752 22.9245 45.7125 23.1216 45.5401 22.7159C45.4308 22.4545 45.3446 22.4031 45.2023 22.3916C45.1463 21.7502 45.06 21.8345 44.9048 21.8302C44.7625 21.8273 44.6346 21.8531 44.521 21.7188C44.0956 21.2131 42.5563 20.7559 42.2976 20.3545L42.3579 20.1188C42.529 19.6445 42.4212 19.6759 42.4916 19.1916C42.7575 18.9259 43.1082 19.1559 43.318 18.3716C43.3698 18.1787 43.4273 17.7487 43.4388 17.3316C43.3885 16.8159 43.3137 16.673 43.1916 16.4402C43.1197 16.3016 43.091 16.243 43.0493 16.0587C43.0177 15.9087 42.9731 15.6616 42.9616 15.3787C43.0852 15.2287 43.0406 15.1016 43.1887 15.3401C43.2893 15.503 43.3439 15.4087 43.4546 15.4916C43.6817 15.6701 43.8139 15.7559 43.9102 15.0001C43.765 14.8273 43.5724 14.8787 43.5135 14.4073C43.5193 14.3916 43.5265 14.3501 43.5308 14.3744H43.6156C43.7579 14.5801 43.7047 14.5244 43.8585 14.5601C44.0683 14.6101 44.0079 14.8516 44.1948 14.3073C44.1445 13.7001 44.1373 14.0916 43.9864 14.0816C43.9217 14.0773 43.8987 14.063 43.8312 14.0816C43.6917 14.1158 43.7808 14.1701 43.696 13.9373C43.6386 13.7787 43.6414 13.7844 43.5638 13.7116C43.4143 13.5744 43.2577 13.5544 43.1312 13.2001L43.2146 12.4858C43.3683 12.463 43.4014 12.8444 43.4891 12.393C43.4517 12.1858 43.1039 11.7515 43.0119 11.6687C42.3364 11.0601 42.861 10.5444 42.1481 9.81438C42.0029 9.66723 41.8721 9.80723 41.7802 9.29009C41.7773 9.27151 41.773 9.24723 41.7701 9.23009L41.7011 8.88151C41.8247 8.01865 42.3364 9.29437 42.5908 8.55294C42.69 8.25865 42.6497 7.9115 42.7216 7.5115C42.8984 7.35864 42.8409 7.54578 42.9602 7.62864L42.9127 6.79149C42.7633 6.73435 42.6569 6.64149 42.5232 6.59006C42.3134 6.51006 42.4327 6.26006 42.2703 6.32577C42.2315 6.34149 42.1927 6.36149 42.1539 6.37434L42.0906 6.12149C42.0504 5.98577 42.0604 6.00291 41.9914 5.96291C41.76 5.8272 41.5128 5.84577 41.2785 5.79863C40.6231 5.6672 40.0166 5.15576 39.3957 4.88004C39.0881 4.7429 38.7691 4.57719 38.4629 4.43718C38.3307 4.37575 38.1295 4.22004 38.0289 4.1929C37.8823 4.15575 37.7342 4.11861 37.5848 4.05289C37.4669 4.00004 37.4597 3.88146 37.3936 3.91432C37.1823 4.02289 36.9121 3.82432 36.6865 3.78861C36.353 3.73146 36.0138 3.66289 35.6947 3.68289C35.4245 3.70003 35.0954 3.33575 34.7634 3.45575C34.5334 3.53575 34.1597 3.20146 33.8967 3.14717C33.5589 3.0786 33.2269 2.97717 32.9035 2.93288C32.3143 2.85145 31.6905 2.45002 31.0955 2.41288C31.0236 2.40717 30.8942 2.45859 30.7922 2.36859L29.352 1.99716C28.2655 1.87859 27.1659 1.59001 26.0736 1.56859C25.9227 1.5643 25.7416 1.57716 25.5907 1.49001C25.4067 1.38001 25.4441 1.09001 25.1667 1.17144L23.1516 1.19715C22.6443 0.76715 19.889 1.21715 19.1776 1.30144C18.5049 1.38144 17.8251 1.22144 17.1467 1.20144C16.4582 1.17858 15.7583 1.11858 15.0698 1.17287C14.745 1.20001 14.4231 1.32287 14.1025 1.36287C14.0336 1.37144 13.9042 1.39716 13.8453 1.35716C13.7245 1.28144 13.749 1.1543 13.6484 1.24858C13.6196 1.27715 13.6326 1.27858 13.5923 1.28144C13.4788 1.29144 13.358 1.05572 13.2603 0.931437C12.9958 0.602863 12.7817 0.760007 12.5762 0.604291C12.5086 0.552862 12.4181 0.41429 12.3548 0.364289C12.2298 0.270003 12.0314 0.381432 11.8661 0.268574C11.7928 0.218573 11.7066 0.177145 11.6333 0.168573L11.4896 0H11.1619C11.0067 0.210002 10.3024 0.150001 10.0652 0.26286C9.72461 0.421432 9.36529 0.512862 9.01315 0.657149C8.38075 0.914294 6.68046 2.11288 6.03081 2.67431C5.87414 2.81288 5.7103 2.93717 5.54645 3.06574C5.39266 3.19003 5.23025 3.50575 5.11526 3.57003C4.66827 3.82289 4.3147 4.31004 4.14798 4.40004C3.93382 4.5129 3.1735 4.25575 3.07289 4.63576C3.14332 4.95433 3.4624 4.82862 3.61906 4.8629C3.63774 4.86576 3.67655 4.88005 3.69524 4.9029L3.76135 5.04005C3.71967 5.1029 3.58456 5.31148 3.55582 5.44862C3.48539 5.78148 3.56444 5.78148 3.43221 6.21577C3.3043 6.62435 3.11026 6.5472 2.94067 6.6072L3.0154 7.07149C3.0614 7.26721 3.19075 7.85579 3.12464 8.20436C3.09877 8.34722 2.82856 8.28008 2.76819 8.28579C2.64459 8.29436 2.52529 8.27151 2.39881 8.28008C2.24502 8.29151 1.8699 7.94722 1.74342 8.46437C1.8584 9.2158 2.64171 8.65008 2.83431 9.37009C2.76676 9.52866 2.6719 9.47152 2.5756 9.46437L2.53392 9.95295C2.43043 9.79152 2.53104 9.68866 2.43187 9.81723C2.37582 9.89009 2.44193 10.0501 2.35426 9.72438C2.19472 10.453 2.21197 9.77438 2.00356 10.1415C2.00356 10.1601 2.00356 10.1915 2.00356 10.2001C2.02225 10.9287 2.05962 10.0501 2.02081 10.7872L1.86846 10.7087C1.77504 11.1715 1.89002 10.8244 1.71754 11.2287L1.43153 11.803C1.32948 11.9687 1.24899 11.7944 1.15557 11.6873C1.1297 11.6587 1.03628 11.563 1.01328 11.5558C0.961537 11.5358 0.980222 11.5172 0.92848 11.583C0.860928 11.6687 0.919856 11.5358 0.879613 11.7173C1.03484 12.0973 1.41572 12.3273 1.6155 12.3487C1.75204 12.3615 1.79803 12.2473 1.84259 12.7273C1.72042 12.9315 1.49477 12.5258 1.38697 12.8973C1.49333 13.1401 2.41319 13.453 2.52673 13.2001C2.49224 12.8015 2.49367 13.103 2.40312 12.783L2.55835 12.7601L2.60578 13.2887C2.68627 13.293 2.75095 13.2958 2.83143 13.2673L3.23387 13.3716C3.50408 13.523 3.88496 13.2344 4.31614 13.4858L4.16379 13.963C4.10198 14.0458 4.0833 13.9444 3.97838 14.0401C3.80878 14.1916 3.58025 14.4116 3.42072 14.2644C3.30142 14.153 3.3661 14.2344 3.15769 14.2473C3.06715 14.2516 3.04128 14.443 2.9766 14.4416C2.9306 14.4401 2.89755 14.2916 2.8185 14.2701L2.40025 14.2287C2.2364 14.2073 2.08405 14.2616 1.9202 14.1644C1.71611 14.0444 1.27055 13.2658 1.26911 15.113C1.33235 15.2344 1.46171 15.2801 1.56663 15.4144C1.4344 15.9773 1.0219 15.7916 0.807749 15.813C0.645337 15.8301 0.0847993 15.8259 0 16.0301Z" fill="#CC0F14"/>
<path d="M17.3947 8.37159C17.3947 8.62407 17.3947 8.87797 17.3947 9.17158C17.3947 15.3687 16.4024 28.943 16.1621 33.2848C16.1621 33.5812 16.6071 33.75 17.2582 33.75C17.9761 33.75 18.5249 33.5812 18.559 33.2848C19.0381 29.4068 19.3466 24.5189 19.5868 21.4835C20.0304 22.4948 20.8521 25.3203 22.4272 28.8196C23.5901 31.3912 25.1638 33.7089 26.6011 33.7089C28.6426 33.7089 42.5589 30.7146 28.8245 30.7146C28.1734 30.7146 27.5934 30.211 26.7362 29.072C25.0601 26.7529 23.0072 22.4111 22.2552 18.6594C24.3421 17.0566 29.4742 11.7871 30.9811 7.5716C31.0835 7.31912 31.1205 7.02267 31.1205 6.72764C31.1205 5.75886 30.5362 5 30.1609 5C29.5098 5 27.6289 5.7163 27.6289 6.05531C27.6289 6.26523 27.7668 6.26523 27.9019 6.26523C28.0725 6.30637 28.2801 6.30637 28.2801 7.02267C28.2801 9.80561 22.1528 17.0566 19.928 18.7445C20.1356 16.2977 20.545 11.8708 20.545 9.13328C20.545 7.10778 20.4767 6.98295 19.7915 6.98295C18.7978 6.98012 17.3947 7.86521 17.3947 8.37159Z" fill="white"/>
</svg>
