<svg width="24" height="24" viewBox="0 0 24 24" fill="none" xmlns="http://www.w3.org/2000/svg">
<path d="M16.889 2H2.577C1.156 2 0 3.184 0 4.64V12.197C0 13.652 1.156 14.837 2.577 14.837H3.186V13.467H2.577C1.892 13.467 1.337 12.897 1.337 12.197V6.251H18.13V7.781H19.466V4.64C19.466 3.184 18.31 2 16.889 2ZM1.336 4.881V4.64C1.336 3.94 1.892 3.368 2.576 3.368H16.888C17.573 3.368 18.129 3.94 18.129 4.64V4.881H1.336Z" />
<path d="M21.4242 22H7.11018C5.69118 22 4.53418 20.816 4.53418 19.359V11.803C4.53418 10.348 5.69118 9.16299 7.11018 9.16299H21.4232C22.8442 9.16299 23.9992 10.348 23.9992 11.803V19.359C24.0002 20.816 22.8452 22 21.4242 22ZM7.11018 10.533C6.42718 10.533 5.87018 11.103 5.87018 11.804V19.36C5.87018 20.061 6.42718 20.631 7.11018 20.631H21.4232C22.1072 20.631 22.6632 20.061 22.6632 19.36V11.804C22.6632 11.104 22.1062 10.533 21.4232 10.533H7.11018Z" />
<path d="M13.4966 19.039H8.10357C7.73357 19.039 7.43457 18.732 7.43457 18.355C7.43457 17.976 7.73357 17.669 8.10357 17.669H13.4966C13.8656 17.669 14.1646 17.976 14.1646 18.355C14.1646 18.732 13.8656 19.039 13.4966 19.039Z" />
<path d="M17.9066 16.365H8.10357C7.73357 16.365 7.43457 16.058 7.43457 15.679C7.43457 15.302 7.73357 14.995 8.10357 14.995H17.9066C18.2756 14.995 18.5756 15.302 18.5756 15.679C18.5756 16.059 18.2756 16.365 17.9066 16.365Z" />
</svg>
