<svg width="24" height="16" viewBox="0 0 24 16" fill="none" xmlns="http://www.w3.org/2000/svg">
  <path d="M19.5 2.5H0.5V15.5H21.5H22.5L23.5 14V2L23 1L22 0.5H21L19.5 2.5Z" fill="white" />
  <path d="M21.563 0C20.38 0 19.393 0.841 19.171 1.951H0.476C0.214 1.951 0 2.163 0 2.425V15.527C0 15.788 0.214 16 0.476 16H21.563C22.905 16 24 14.913 24 13.577V2.425C24 1.088 22.905 0 21.563 0ZM21.563 15.051H0.953V2.899H19.123V13.577C19.123 13.838 19.337 14.051 19.6 14.051C19.863 14.051 20.078 13.838 20.078 13.577C20.078 12.764 20.743 12.1 21.563 12.1C22.381 12.1 23.046 12.763 23.046 13.577C23.046 14.39 22.381 15.051 21.563 15.051ZM22.852 11.527C22.763 11.471 22.673 11.423 22.579 11.38C22.538 11.361 22.494 11.342 22.449 11.324C22.35 11.285 22.248 11.254 22.143 11.229C22.101 11.219 22.06 11.206 22.016 11.198C21.868 11.17 21.717 11.151 21.563 11.151C21.017 11.151 20.5 11.328 20.078 11.653V2.425C20.078 1.611 20.743 0.948 21.563 0.948C22.381 0.948 23.046 1.611 23.046 2.425V11.654C23.023 11.634 22.993 11.62 22.966 11.602C22.929 11.575 22.889 11.551 22.852 11.527Z" fill="#CC0F14" />
</svg>
