<svg width="16" height="16" viewBox="0 0 16 16" fill="none" xmlns="http://www.w3.org/2000/svg">
  <g clip-path="url(#clip0)">
    <path d="M3.56359 9.49741L0.316928 12.8187C-0.115072 13.2614 -0.101072 13.9634 0.348928 14.3881L1.72893 15.6901C2.17893 16.1147 2.89359 16.1001 3.32626 15.6587L6.57359 12.3374C9.06893 13.5014 12.1436 13.0394 14.1623 10.9741C16.6876 8.39207 16.6029 4.28741 13.9743 1.80741C11.3456 -0.672593 7.16759 -0.589926 4.64359 1.99274C2.62426 4.05807 2.27893 7.09474 3.56359 9.49741ZM5.85626 3.13741C7.73693 1.21341 10.8503 1.15141 12.8089 2.99941C14.7676 4.84741 14.8303 7.90607 12.9489 9.82941C11.0683 11.7541 7.95559 11.8154 5.99693 9.96741C4.03826 8.11941 3.97559 5.06141 5.85626 3.13741Z" fill="#CC0F14" />
  </g>
  <defs>
    <clipPath id="clip0">
      <rect width="16" height="16" fill="white" />
    </clipPath>
  </defs>
</svg>
