<svg version="1.1" xmlns="http://www.w3.org/2000/svg" xmlns:xlink="http://www.w3.org/1999/xlink">

  <symbol id="arrow-nav" viewBox="0 0 8 8">
    <g clip-path="url(#clip0)">
      <path d="M7.889 3.63004C7.89067 3.6327 7.89167 3.63504 7.89367 3.63704C7.915 3.67137 7.93467 3.70737 7.95033 3.74537C7.95133 3.74837 7.95233 3.75104 7.95367 3.75404C7.968 3.79104 7.97967 3.8297 7.98767 3.8697C7.988 3.8717 7.98833 3.87404 7.98867 3.8767C7.99533 3.91604 8 3.95704 8 3.9987C8 3.99904 8 3.99904 8 3.99904C8 4.04104 7.99533 4.0817 7.98833 4.12137C7.988 4.1237 7.98767 4.1257 7.98733 4.12837C7.97967 4.16837 7.96767 4.2067 7.95333 4.2437C7.952 4.2467 7.951 4.2497 7.95 4.2527C7.93433 4.29037 7.915 4.3267 7.89333 4.36037C7.89133 4.36304 7.89033 4.3657 7.88867 4.36804C7.86433 4.40504 7.83667 4.43937 7.80533 4.47037C7.80533 4.47037 7.80533 4.47037 7.805 4.47037L4.49067 7.80304C4.231 8.0637 3.811 8.0637 3.552 7.80304C3.29267 7.54237 3.29267 7.1197 3.552 6.85937L5.73333 4.66637L0.663667 4.66637C0.297334 4.66637 3.17417e-07 4.3677 3.49647e-07 3.99904C3.81877e-07 3.63037 0.297334 3.3317 0.663667 3.3317L5.73333 3.3317L3.552 1.13837C3.29267 0.877369 3.29267 0.455369 3.552 0.195036C3.68167 0.0647028 3.85167 -0.000963828 4.02133 -0.000963813C4.19133 -0.000963798 4.36133 0.0647029 4.491 0.195036L7.80533 3.52704C7.80567 3.52704 7.80567 3.52704 7.80567 3.52704C7.837 3.55904 7.86467 3.5927 7.889 3.63004Z" />
    </g>
    <defs>
      <clipPath id="clip0">
        <rect width="8" height="8" fill="white" transform="matrix(1 8.74228e-08 8.74228e-08 -1 0 8)" />
      </clipPath>
    </defs>
  </symbol>

  <symbol id="module-icon" viewBox="0 0 24 16">
    <rect x="9.5" y="0.5" width="5" height="15" fill="#fff" />
    <rect x="0.5" y="0.5" width="5" height="9" fill="#fff" />
    <rect x="18.5" y="2.5" width="5" height="11" fill="#fff" />
  </symbol>

  <symbol id="poster-icon" viewBox="0 0 24 17">
    <rect x="0.5" y="0.5" width="23" height="15" fill="#fff" />
  </symbol>

  <symbol id="picture-ba-icon" viewBox="0 0 24 16">
    <rect x="0.5" y="0.5" width="23" height="15" fill="#fff" />
    <rect x="2.5" y="2.5" width="19" height="11" fill="#fff" />
  </symbol>

  <symbol id="reproduction-icon" viewBox="0 0 24 16">
    <path fill-rule="evenodd" clip-rule="evenodd" d="M0 0H24V11H23V1H1V15H19V16H0V0ZM2 2H22V8.5H21V3H3V13H16.5V14H2V2Z" stroke="none" />
    <path fill-rule="evenodd" clip-rule="evenodd" d="M13.0373 4H13.5106C15.0063 4 16.524 4.3225 17.6845 5.08678C18.8224 5.83625 19.5949 7.00001 19.6532 8.60729L21.2642 10.3813L20.894 10.7174L21.2642 10.3813L23.87 13.2508L23.1297 13.9231L20.894 11.4611L19.8321 12.6304L22.1328 15.1639L21.3925 15.8361L18.7866 12.9666L19.1333 12.6517L18.7866 12.9666L17.1525 11.1672C14.7597 10.5376 12.8338 7.7064 13.0114 4.47258L13.0373 4ZM18.0949 10.7174L19.1567 11.8867L20.2186 10.7174L19.1567 9.54809L18.0949 10.7174ZM18.6527 8.6156C18.5992 7.36645 18.0128 6.50042 17.1344 5.92192C16.3023 5.37387 15.1914 5.07637 14.0009 5.01294C14.047 7.58223 15.5836 9.6195 17.2544 10.1554L18.6527 8.6156Z" stroke="none" />
  </symbol>

  <symbol id="mirrors-icon" viewBox="0 0 24 16">
    <rect x="0.5" y="0.5" width="23" height="15" fill="none" />
    <rect x="2.5" y="2.5" width="19" height="11" fill="none" />
    <path d="M10 10.5L15.5 5M14.5 9.5L17 7M7.5 9.5L10 7" fill="none" />
  </symbol>

  <symbol id="picture-photo-icon" viewBox="0 0 24 16">
    <rect x="0.5" y="0.5" width="23" height="15" fill="none" />
    <path d="M8 4.5L3.5 12.5H11.75H20L15 7L11 10.5L8 4.5Z" fill="none" />
    <circle cx="18" cy="5" r="1.5" fill="none" />
  </symbol>

  <symbol id="search-icon" viewBox="0 0 16 16">
    <g clip-path="url(#clip0)">
      <path d="M3.56359 9.49741L0.316928 12.8187C-0.115072 13.2614 -0.101072 13.9634 0.348928 14.3881L1.72893 15.6901C2.17893 16.1147 2.89359 16.1001 3.32626 15.6587L6.57359 12.3374C9.06893 13.5014 12.1436 13.0394 14.1623 10.9741C16.6876 8.39207 16.6029 4.28741 13.9743 1.80741C11.3456 -0.672593 7.16759 -0.589926 4.64359 1.99274C2.62426 4.05807 2.27893 7.09474 3.56359 9.49741ZM5.85626 3.13741C7.73693 1.21341 10.8503 1.15141 12.8089 2.99941C14.7676 4.84741 14.8303 7.90607 12.9489 9.82941C11.0683 11.7541 7.95559 11.8154 5.99693 9.96741C4.03826 8.11941 3.97559 5.06141 5.85626 3.13741Z" />
    </g>
    <defs>
      <clipPath id="clip0">
        <rect width="16" height="16" fill="white" />
      </clipPath>
    </defs>
  </symbol>

  <symbol id="favorites-icon" viewBox="0 0 16 16">
    <path d="M15.9993 4.73864C15.9993 9.34397 7.99933 15 7.99933 15C7.99933 15 0 9.34397 0 4.73864C0 0.134014 6.59133 -0.351089 8 4.36344C9.36 -0.47639 15.9993 0.134714 15.9993 4.73864Z" />
    <rect class="white-line" x="5.87891" y="4.46448" width="8" height="2" rx="1" transform="rotate(45 5.87891 4.46448)" />
    <rect class="white-line" x="11.5352" y="5.87869" width="8" height="2" rx="1" transform="rotate(135 11.5352 5.87869)" />
  </symbol>

  <symbol id="cart-icon" viewBox="0 0 16 16">
    <path d="M13.8073 10.7733C14.318 10.7733 14.7307 10.354 14.7307 9.836L16 4.538C16 4.02 15.586 3.59933 15.0767 3.59933L3.914 2.30933C3.84867 2.30933 3.78667 2.31667 3.72467 2.32933L2.39133 1.38267C2.398 1.33 2.40667 1.278 2.40667 1.22267C2.40733 0.547333 1.868 0 1.204 0C0.539333 0 0 0.547333 0 1.22267C0 1.89867 0.538667 2.44667 1.204 2.44667C1.33533 2.44667 1.46067 2.41933 1.57933 2.37933L3.02867 3.408L4.57667 9.83533C4.57667 10.2207 4.80667 10.5513 5.13333 10.696L4.56333 12.6207C3.68867 12.6727 2.994 13.404 2.994 14.3053C2.994 15.24 3.74 15.9993 4.66067 15.9993C5.37733 15.9993 5.98267 15.5373 6.218 14.8913H11.3427C11.578 15.538 12.1833 16 12.9 16C13.8207 16 14.5667 15.2407 14.5667 14.306C14.5667 13.37 13.8207 12.612 12.9 12.612C12.228 12.612 11.6513 13.0187 11.388 13.6013H6.172C6.07467 13.388 5.93467 13.1993 5.76333 13.0447L6.43667 10.7733H13.8073Z" />
  </symbol>

  <symbol id="enter-icon" viewBox="0 0 16 16">
    <g clip-path="url(#clip0)">
      <path d="M8.00257 0.147339C4.3419 0.147339 1.24857 2.61334 0.295898 5.96867H1.46257C2.37723 3.23667 4.96257 1.26134 8.00257 1.26134C11.8052 1.26134 14.8979 4.35067 14.8979 8.14734C14.8979 11.9447 11.8046 15.0333 8.00257 15.0333C4.96257 15.0333 2.3779 13.058 1.46257 10.3253H0.295898C1.24857 13.6813 4.34123 16.1473 8.00257 16.1473C12.4192 16.1473 16.0132 12.558 16.0132 8.14734C16.0132 3.73667 12.4199 0.147339 8.00257 0.147339Z" />
      <path d="M6.59034 4.58734L5.90167 5.46401L8.61367 7.59001H0.0136719V8.70401H8.61367L5.90167 10.83L6.59034 11.7067L11.1303 8.14734L6.59034 4.58734Z" />
    </g>
    <defs>
      <clipPath id="clip0">
        <rect width="16" height="16" fill="white" />
      </clipPath>
    </defs>
  </symbol>

  <symbol id="registred-icon" viewBox="0 0 16 16">
    <path d="M8 16C3.58933 16 0 12.4113 0 8C0 3.58867 3.58933 0 8 0C12.4113 0 16 3.58867 16 8C16 12.4113 12.4113 16 8 16ZM8 1.114C4.20333 1.114 1.114 4.20333 1.114 8C1.114 11.7967 4.20333 14.886 8 14.886C11.7967 14.886 14.886 11.7967 14.886 8C14.886 4.20333 11.7967 1.114 8 1.114Z" />
    <path d="M6.54661 12.08L3.72461 9.25869L4.51261 8.47069L6.54661 10.5047L11.4873 5.56403L12.2753 6.35136L6.54661 12.08Z" />
  </symbol>

  <symbol id="arrow" viewBox="0 0 16 16">
    <path d="M13.8335 7.4465C13.836 7.4505 13.8375 7.454 13.8405 7.457C13.8725 7.5085 13.902 7.56251 13.9255 7.6195C13.927 7.62401 13.9285 7.628 13.9305 7.6325C13.952 7.688 13.9695 7.74601 13.9815 7.806C13.982 7.80901 13.9825 7.81251 13.983 7.8165C13.993 7.8755 14 7.937 14 7.9995C14 8 14 8 14 8C14 8.063 13.993 8.124 13.9825 8.1835C13.982 8.187 13.9815 8.19 13.981 8.194C13.9695 8.254 13.9515 8.3115 13.93 8.367C13.928 8.3715 13.9265 8.376 13.925 8.3805C13.9015 8.437 13.8725 8.4915 13.84 8.542C13.837 8.546 13.8355 8.55 13.833 8.5535C13.7965 8.609 13.755 8.6605 13.708 8.707C13.708 8.707 13.708 8.707 13.7075 8.707L8.736 13.706C8.3465 14.097 7.7165 14.097 7.328 13.706C6.939 13.315 6.939 12.681 7.328 12.2905L10.6 9.001L2.9955 9.001C2.446 9.001 2 8.553 2 8C2 7.447 2.446 6.999 2.9955 6.999L10.6 6.999L7.328 3.709C6.939 3.3175 6.939 2.6845 7.328 2.294C7.5225 2.0985 7.7775 2 8.032 2C8.287 2 8.542 2.0985 8.7365 2.294L13.708 7.292C13.7085 7.292 13.7085 7.292 13.7085 7.292C13.7555 7.34 13.797 7.3905 13.8335 7.4465Z" />
  </symbol>

  <symbol id="print" viewBox="0 0 24 24">
    <path d="M4.19994 10.461C4.67711 10.461 5.06394 10.0854 5.06394 9.622C5.06394 9.15864 4.67711 8.783 4.19994 8.783C3.72276 8.783 3.33594 9.15864 3.33594 9.622C3.33594 10.0854 3.72276 10.461 4.19994 10.461Z" />
    <path d="M22.079 5.78H18.431V0H5.568V5.78H1.92C0.864 5.78 0 6.62 0 7.646V16.596C0 17.621 0.864 18.461 1.92 18.461H4.021V17.155H1.92C1.607 17.155 1.344 16.899 1.344 16.595V7.645C1.344 7.341 1.607 7.085 1.92 7.085H22.079C22.392 7.085 22.656 7.341 22.656 7.645V16.595C22.656 16.899 22.391 17.155 22.079 17.155H19.968V18.461H22.079C23.136 18.461 24 17.621 24 16.596V7.646C24 6.62 23.136 5.78 22.079 5.78ZM17.087 5.78H6.911V1.305H17.087V5.78Z" />
    <path d="M20.1896 13.146H3.80859V14.451H5.56759V22.135H6.91059V14.451H8.44659V20.768H9.79159V14.451H11.3276V24H12.6706V14.451H14.2066V19.897H15.5516V14.451H17.0866V22.259H18.4306V14.451H20.1896V13.146Z" />
  </symbol>

  <symbol id="delivery" viewBox="0 0 26 26">
    <path d="M25.9858 14.1343C25.9988 14.0281 25.9771 13.9187 25.9241 13.8168C22.1053 6.69283 18.3299 3.2565 17.3311 3.25867C17.3072 3.25542 17.2834 3.25108 17.2596 3.25108H14.6097C14.6054 3.25108 14.6011 3.25 14.5967 3.25H6.19873C5.87373 3.25 5.61048 3.50567 5.61048 3.82092C5.61048 4.13617 5.87373 4.39183 6.19873 4.39183H9.14106V4.39292H17.1566C17.1881 4.39725 17.2184 4.40158 17.2476 4.40267C17.2801 4.40267 20.7208 6.88567 23.5115 12.0683H17.9496C17.0342 12.0683 16.9508 11.2623 16.9465 11.0186V6.88025C16.9465 6.565 16.6832 6.30933 16.3582 6.30933C16.0321 6.30933 15.77 6.565 15.77 6.88025V11.0186C15.77 11.8993 16.3517 13.2091 17.9496 13.2091H24.2373C24.4334 13.5363 24.6273 13.8807 24.8256 14.2437C24.8245 14.248 24.8245 14.2523 24.8245 14.2567V18.9042C24.8245 19.3093 24.4854 19.6376 24.0683 19.6376H23.2926C23.0218 18.5239 21.9894 17.6898 20.7587 17.6898C19.527 17.6898 18.4946 18.5239 18.2237 19.6376H13.7528C13.482 18.5239 12.4485 17.6898 11.2178 17.6898C9.98715 17.6898 8.95581 18.5239 8.6839 19.6376H7.72623C7.30915 19.6376 6.97006 19.3093 6.97006 18.9042V17.9281H7.95156C8.27656 17.9281 8.53981 17.6735 8.53981 17.3583C8.53981 17.043 8.27656 16.7863 7.95156 16.7863H4.72106C4.39606 16.7863 4.13281 17.0419 4.13281 17.3572C4.13281 17.6724 4.39606 17.927 4.72106 17.927H5.79356V18.9031C5.79356 19.9377 6.66023 20.7783 7.72623 20.7783H8.67848C8.94173 21.9061 9.97956 22.75 11.2178 22.75C12.4571 22.75 13.4939 21.9061 13.7582 20.7805H18.2183C18.4816 21.9061 19.5183 22.75 20.7587 22.75C21.997 22.75 23.0359 21.9061 23.2981 20.7805H24.0683C25.1332 20.7805 25.9999 19.9388 25.9999 18.9042V14.2567C25.9999 14.2144 25.9956 14.1743 25.9858 14.1343ZM11.2178 21.6082C10.635 21.6082 10.1345 21.268 9.91131 20.7794C9.83331 20.6093 9.78781 20.4198 9.78781 20.2193C9.78781 20.0124 9.83873 19.8153 9.92323 19.6365C10.1507 19.162 10.6436 18.8294 11.2167 18.8294C11.7909 18.8294 12.2838 19.1631 12.5113 19.6365C12.598 19.8153 12.6489 20.0124 12.6489 20.2193C12.6489 20.4198 12.6023 20.6082 12.5243 20.7794C12.3011 21.268 11.8017 21.6082 11.2178 21.6082ZM20.7587 21.6082C20.1748 21.6082 19.6743 21.268 19.4511 20.7794C19.3731 20.6093 19.3287 20.4198 19.3287 20.2193C19.3287 20.0124 19.3796 19.8153 19.4641 19.6365C19.6916 19.162 20.1846 18.8294 20.7587 18.8294C21.3329 18.8294 21.8258 19.1631 22.0522 19.6365C22.1378 19.8153 22.1898 20.0124 22.1898 20.2193C22.1898 20.4198 22.1421 20.6082 22.0652 20.7794C21.8421 21.268 21.3416 21.6082 20.7587 21.6082Z" />
    <path d="M2.58239 8.41208H10.1906C10.5156 8.41208 10.7778 8.15641 10.7778 7.84225C10.7778 7.527 10.5146 7.27133 10.1906 7.27133H2.58239C2.25847 7.27133 1.99414 7.527 1.99414 7.84225C1.99414 8.15641 2.25739 8.41208 2.58239 8.41208Z" />
    <path d="M10.7792 14.1873C10.7792 13.871 10.5159 13.6153 10.192 13.6153H0.58825C0.26325 13.6153 0 13.871 0 14.1873C0 14.5026 0.264333 14.7572 0.58825 14.7572H10.1909C10.5159 14.7572 10.7792 14.5026 10.7792 14.1873Z" />
    <path d="M4.5752 11.0142C4.5752 11.3295 4.83736 11.5852 5.16236 11.5852H12.4326C12.7565 11.5852 13.0198 11.3295 13.0198 11.0142C13.0198 10.6979 12.7565 10.4433 12.4326 10.4433H5.16236C4.83736 10.4433 4.5752 10.6979 4.5752 11.0142Z" />
  </symbol>

  <symbol id="payment" viewBox="0 0 24 24">
    <path d="M16.889 2H2.577C1.156 2 0 3.184 0 4.64V12.197C0 13.652 1.156 14.837 2.577 14.837H3.186V13.467H2.577C1.892 13.467 1.337 12.897 1.337 12.197V6.251H18.13V7.781H19.466V4.64C19.466 3.184 18.31 2 16.889 2ZM1.336 4.881V4.64C1.336 3.94 1.892 3.368 2.576 3.368H16.888C17.573 3.368 18.129 3.94 18.129 4.64V4.881H1.336Z" />
    <path d="M21.4242 22H7.11018C5.69118 22 4.53418 20.816 4.53418 19.359V11.803C4.53418 10.348 5.69118 9.16299 7.11018 9.16299H21.4232C22.8442 9.16299 23.9992 10.348 23.9992 11.803V19.359C24.0002 20.816 22.8452 22 21.4242 22ZM7.11018 10.533C6.42718 10.533 5.87018 11.103 5.87018 11.804V19.36C5.87018 20.061 6.42718 20.631 7.11018 20.631H21.4232C22.1072 20.631 22.6632 20.061 22.6632 19.36V11.804C22.6632 11.104 22.1062 10.533 21.4232 10.533H7.11018Z" />
    <path d="M13.4966 19.039H8.10357C7.73357 19.039 7.43457 18.732 7.43457 18.355C7.43457 17.976 7.73357 17.669 8.10357 17.669H13.4966C13.8656 17.669 14.1646 17.976 14.1646 18.355C14.1646 18.732 13.8656 19.039 13.4966 19.039Z" />
    <path d="M17.9066 16.365H8.10357C7.73357 16.365 7.43457 16.058 7.43457 15.679C7.43457 15.302 7.73357 14.995 8.10357 14.995H17.9066C18.2756 14.995 18.5756 15.302 18.5756 15.679C18.5756 16.059 18.2756 16.365 17.9066 16.365Z" />
  </symbol>

  <symbol id="waranty" viewBox="0 0 24 24">
    <path d="M4.631 24H0V22.482H3.148V10.166H0.045V8.647H4.631V24Z" />
    <path d="M22.245 11.031C22.057 11.245 21.767 11.346 21.368 11.339V11.34H20.782C20.373 11.34 20.041 11.68 20.041 12.1C20.041 12.519 20.373 12.859 20.782 12.859H21.45C21.474 12.859 21.496 12.855 21.52 12.853C22.463 12.818 23.035 12.403 23.348 12.045C23.695 11.65 23.872 11.183 23.967 10.75H22.41C22.366 10.853 22.315 10.95 22.245 11.031Z" />
    <path d="M19.1108 21.596H6.63379V23.114H19.1118C20.8858 23.114 21.6998 21.829 21.9508 20.948H20.3408C20.1438 21.262 19.7798 21.596 19.1108 21.596Z" />
    <path d="M13.7728 9.442L23.9998 9.426C23.9158 9.111 23.7928 8.856 23.6198 8.628C23.2798 8.175 22.7658 7.916 22.2088 7.916C22.1388 7.916 22.0818 7.919 22.0398 7.925H16.0608C16.8018 5.467 16.4848 2.595 16.4698 2.471C16.3018 0.649 15.1668 0 14.1618 0C14.0158 0 13.8968 0.014 13.8198 0.025C12.2538 0.06 11.5898 1.296 11.5248 2.13L11.5238 2.19C11.5238 6.57 8.24179 8.365 6.63379 8.982V10.582H6.67179V10.568C8.33079 10.002 12.9818 7.91 13.0058 2.235C13.0428 1.965 13.2088 1.543 13.8868 1.543L14.0328 1.528C14.0508 1.525 14.0968 1.519 14.1618 1.519C14.4748 1.519 14.9018 1.632 14.9948 2.631C14.9988 2.666 15.3848 6.142 14.3088 8.344L13.7728 9.442Z" />
    <path d="M21.8085 14.453C21.6215 14.666 21.3305 14.767 20.9325 14.762H20.3465C19.9365 14.762 19.6055 15.102 19.6055 15.522C19.6055 15.94 19.9365 16.282 20.3465 16.282H21.0145C21.0375 16.282 21.0595 16.276 21.0825 16.274C22.0275 16.241 22.5995 15.825 22.9125 15.469C23.2565 15.074 23.4355 14.608 23.5275 14.178H21.9705C21.9295 14.279 21.8775 14.375 21.8085 14.453Z" />
    <path d="M21.119 17.834C20.932 18.049 20.641 18.15 20.243 18.143V18.145H19.657C19.247 18.145 18.915 18.485 18.915 18.903C18.915 19.323 19.247 19.663 19.657 19.663H20.325C20.348 19.663 20.37 19.659 20.393 19.657C21.338 19.624 21.91 19.208 22.223 18.848C22.562 18.463 22.74 18.002 22.834 17.578H21.274C21.232 17.672 21.185 17.76 21.119 17.834Z" />
  </symbol>

  <symbol id="play" viewBox="0 0 16 16">
    <g clip-path="url(#clip0)">
      <path d="M15.5293 8.62871L1.13733 15.868C0.510667 16.184 0 15.9127 0 15.268V0.72938C0 0.08338 0.508 -0.183953 1.13467 0.134713L15.532 7.47871C16.1573 7.79671 16.1553 8.31271 15.5293 8.62871Z" />
    </g>
    <defs>
      <clipPath id="clip0">
        <rect width="16" height="16" fill="white" />
      </clipPath>
    </defs>
  </symbol>

  <symbol id="mail" viewBox="0 0 16 12">
    <path d="M16.0004 10.4759V2.55322L11.3311 6.51389L16.0004 10.4759Z" />
    <path d="M9.50547 8.06342C9.45213 8.10809 9.39746 8.15142 9.34146 8.19076C9.2908 8.22676 9.24013 8.25876 9.18813 8.28876C9.18146 8.29276 9.17613 8.29676 9.17013 8.30076C8.9928 8.40409 8.8068 8.48142 8.61479 8.53476C8.61213 8.53476 8.60946 8.53609 8.60679 8.53809C8.55079 8.55209 8.49413 8.56409 8.43679 8.57676C8.42679 8.57809 8.41679 8.58076 8.40679 8.58342C8.35812 8.59142 8.30946 8.59676 8.26079 8.60142C8.24212 8.60476 8.22279 8.60876 8.20412 8.61009C8.16079 8.61409 8.11679 8.61409 8.07346 8.61542C8.04946 8.61676 8.02612 8.61942 8.00212 8.61942C7.97812 8.61942 7.95412 8.61676 7.93079 8.61542C7.88746 8.61409 7.84346 8.61409 7.80012 8.61009C7.78145 8.60876 7.76279 8.60476 7.74412 8.60276C7.69479 8.59609 7.64612 8.59076 7.59679 8.58342C7.58812 8.58076 7.57945 8.57809 7.57012 8.57676C7.51212 8.56542 7.45345 8.55276 7.39612 8.53809H7.39545C7.20078 8.48476 7.01145 8.40609 6.83278 8.30142C6.83278 8.30142 6.83278 8.30142 6.83212 8.30142C6.77412 8.26676 6.71678 8.23009 6.66078 8.19142C6.60478 8.15142 6.54945 8.10876 6.49678 8.06409L5.66544 7.35809L0.191406 11.9994H15.8088L10.3375 7.35742L9.50547 8.06342Z" />
    <path d="M0 0V0.866L5.66333 5.67067L7.30733 7.066C7.69533 7.39533 8.304 7.39533 8.69267 7.066L10.3373 5.67067L16 0.866V0H0Z" />
    <path d="M0 2.55322V10.4759L4.66867 6.51389L0 2.55322Z" />
  </symbol>

  <symbol id="catalog" viewBox="0 0 16 16">
    <g clip-path="url(#clip0)">
      <path d="M14.4126 5.60001H12.8133V4.79934H3.21328V5.60001H1.61328V4.79934C1.61328 3.91734 2.33128 3.19934 3.21328 3.19934H12.8133C13.6953 3.19934 14.4126 3.91734 14.4126 4.79934V5.60001Z" />
      <path d="M12.8109 2.40067H11.2109V1.6H4.81094V2.40067H3.21094V1.6C3.21094 0.717333 3.92894 0 4.81094 0H11.2109C12.0929 0 12.8109 0.717333 12.8109 1.6V2.40067Z" />
      <path d="M14.4117 6.40002H1.61172C0.729719 6.40002 0.0117188 7.11736 0.0117188 8.00002C0.0117188 8.06536 0.0197188 8.13069 0.0357188 8.19402L1.62905 14.564C1.77839 15.2767 2.37105 16 3.21172 16H12.8117C13.3311 16 14.0237 15.7627 14.3871 14.594L15.9871 8.19402C16.0031 8.13069 16.0111 8.06536 16.0111 8.00002C16.0124 7.11736 15.2937 6.40002 14.4117 6.40002ZM12.8484 14.1607C12.8084 14.2874 12.7744 14.3607 12.7524 14.3994H3.27839C3.24572 14.3587 3.20505 14.2807 3.18772 14.204L1.63705 8.00002H14.3877L12.8484 14.1607Z" />
      <path d="M10.4146 11.2H5.61328V12H10.4146V11.2Z" />
    </g>
    <defs>
      <clipPath id="clip0">
        <rect width="16" height="16" fill="white" />
      </clipPath>
    </defs>
  </symbol>

  <symbol id="burger" viewBox="0 0 16 12">
    <rect width="16" height="2" />
    <rect y="10" width="16" height="2" />
    <rect y="5" width="16" height="2" />
  </symbol>

  <symbol id="arrow-down" viewBox="0 0 16 16">
    <path d="M8.54225 11.8401C8.54525 11.8371 8.54875 11.8356 8.55275 11.8331C8.60875 11.7966 8.65925 11.7546 8.70725 11.7076L13.7052 6.73612C13.9007 6.54162 13.9992 6.28662 13.9992 6.03162C13.9992 5.77712 13.9007 5.52212 13.7052 5.32762C13.3147 4.93862 12.6817 4.93862 12.2902 5.32762L9.00025 8.59962C8.14572 9.44948 7.30953 8.95373 6.99825 8.59962L3.70875 5.32762C3.31825 4.93862 2.68425 4.93862 2.29325 5.32762C1.90225 5.71612 1.90225 6.34612 2.29325 6.73562L7.29225 11.7076C7.33875 11.7546 7.39025 11.7961 7.44575 11.8326C7.44925 11.8351 7.45325 11.8366 7.45725 11.8396C7.50775 11.8721 7.56225 11.9011 7.61875 11.9246C7.62325 11.9261 7.62775 11.9276 7.63225 11.9296C7.68775 11.9511 7.74525 11.9691 7.80525 11.9806L7.81575 11.9821C7.87525 11.9926 7.93675 11.9996 7.99975 11.9996C8.06225 11.9996 8.12375 11.9926 8.18275 11.9826L8.19325 11.9811C8.25325 11.9691 8.31125 11.9516 8.36675 11.9301C8.37125 11.9281 8.37525 11.9266 8.37975 11.9251C8.43675 11.9016 8.49075 11.8721 8.54225 11.8401Z" />
  </symbol>

  <symbol id="arrow-link" viewBox="0 0 12 8">
    <path d="M11.889 3.63004C11.8907 3.6327 11.8917 3.63504 11.8937 3.63704C11.915 3.67137 11.9347 3.70737 11.9503 3.74537C11.9513 3.74837 11.9523 3.75104 11.9537 3.75404C11.968 3.79104 11.9797 3.8297 11.9877 3.8697C11.988 3.8717 11.9883 3.87404 11.9887 3.8767C11.9953 3.91604 12 3.95704 12 3.9987C12 4.0407 11.9953 4.0817 11.9883 4.12137C11.988 4.1237 11.9877 4.1257 11.9873 4.12837C11.9797 4.16837 11.9677 4.2067 11.9533 4.2437C11.952 4.2467 11.951 4.2497 11.95 4.2527C11.9343 4.29037 11.915 4.3267 11.8933 4.36037C11.8913 4.36304 11.8903 4.3657 11.8887 4.36804C11.8643 4.40504 11.8367 4.43937 11.8053 4.47037L8.49067 7.80304C8.231 8.0637 7.811 8.0637 7.552 7.80304C7.29267 7.54237 7.29267 7.1197 7.552 6.85937L9.73333 4.66637L0.663667 4.66637C0.297334 4.66637 3.17417e-07 4.3677 3.49647e-07 3.99904C3.81877e-07 3.63037 0.297334 3.3317 0.663667 3.3317L9.73333 3.3317L7.552 1.13837C7.29267 0.87737 7.29267 0.45537 7.552 0.195037C7.68167 0.0647032 7.85167 -0.000963478 8.02133 -0.000963463C8.19133 -0.000963449 8.36133 0.0647032 8.491 0.195037L11.8053 3.52704C11.8367 3.55904 11.8647 3.5927 11.889 3.63004Z" />
  </symbol>

  <symbol id="poster" viewBox="0 0 24 16">
    <path d="M19.5 2.5H0.5V15.5H21.5H22.5L23.5 14V2L23 1L22 0.5H21L19.5 2.5Z" fill="white" stroke="none" />
    <path d="M21.563 0C20.38 0 19.393 0.841 19.171 1.951H0.476C0.214 1.951 0 2.163 0 2.425V15.527C0 15.788 0.214 16 0.476 16H21.563C22.905 16 24 14.913 24 13.577V2.425C24 1.088 22.905 0 21.563 0ZM21.563 15.051H0.953V2.899H19.123V13.577C19.123 13.838 19.337 14.051 19.6 14.051C19.863 14.051 20.078 13.838 20.078 13.577C20.078 12.764 20.743 12.1 21.563 12.1C22.381 12.1 23.046 12.763 23.046 13.577C23.046 14.39 22.381 15.051 21.563 15.051ZM22.852 11.527C22.763 11.471 22.673 11.423 22.579 11.38C22.538 11.361 22.494 11.342 22.449 11.324C22.35 11.285 22.248 11.254 22.143 11.229C22.101 11.219 22.06 11.206 22.016 11.198C21.868 11.17 21.717 11.151 21.563 11.151C21.017 11.151 20.5 11.328 20.078 11.653V2.425C20.078 1.611 20.743 0.948 21.563 0.948C22.381 0.948 23.046 1.611 23.046 2.425V11.654C23.023 11.634 22.993 11.62 22.966 11.602C22.929 11.575 22.889 11.551 22.852 11.527Z" stroke="none" />
  </symbol>

  <symbol id="interior" viewBox="0 0 40 41">
    <g clip-path="url(#clip0)">
      <path d="M14.4287 10.0648L10.7859 13.138L8.35728 11.0884L5.92871 13.138V15.3352H18.0716V13.138L14.4287 10.0648Z" fill="none" stroke-linecap="round" stroke-linejoin="round" />
      <path d="M10.7856 10.3C11.4562 10.3 11.9999 9.76274 11.9999 9.09999C11.9999 8.43725 11.4562 7.89999 10.7856 7.89999C10.1149 7.89999 9.57129 8.43725 9.57129 9.09999C9.57129 9.76274 10.1149 10.3 10.7856 10.3Z" fill="none" stroke-linecap="round" stroke-linejoin="round" />
      <path d="M3.5 5.5V17.5H20.5V5.5H3.5Z" fill="none" stroke-linecap="round" stroke-linejoin="round" />
      <path d="M18.6012 24.785C17.4401 24.785 16.5 25.7463 16.5 26.9275V35.5H20.7V26.9275C20.7 25.745 19.7599 24.785 18.6012 24.785Z" fill="none" stroke-linecap="round" stroke-linejoin="round" />
      <path d="M35.3998 24.785C34.2411 24.785 33.2998 25.7463 33.2998 26.9275V35.5H37.4998V26.9275C37.4998 25.745 36.561 24.785 35.3998 24.785Z" fill="none" stroke-linecap="round" stroke-linejoin="round" />
      <path d="M33.3002 29.5H20.7002V31.5H33.3002V29.5Z" fill="none" stroke-linecap="round" stroke-linejoin="round" />
      <path d="M29 19.5H25.0012C22.7906 19.5 21 21.7371 21 24.4993V29.5H33V24.4993C33 21.7371 31.2082 19.5 29 19.5Z" fill="none" stroke-linecap="round" stroke-linejoin="round" />
      <path d="M24.735 24.785C24.735 24.7015 24.8034 24.6238 24.9002 24.6238C24.997 24.6238 25.0654 24.7015 25.0654 24.785C25.0654 24.8685 24.997 24.9463 24.9002 24.9463C24.8034 24.9463 24.735 24.8685 24.735 24.785Z" />
      <path d="M28.9366 24.785C28.9366 24.7022 29.0045 24.625 29.1006 24.625C29.1968 24.625 29.2646 24.7022 29.2646 24.785C29.2646 24.8678 29.1968 24.945 29.1006 24.945C29.0045 24.945 28.9366 24.8678 28.9366 24.785Z" />
      <path d="M0 35.5H40" fill="none" stroke-linecap="round" stroke-linejoin="round" />
    </g>
    <defs>
      <clipPath id="clip0">
        <rect y="0.5" width="40" height="40" fill="white" />
      </clipPath>
    </defs>
  </symbol>

  <symbol id="interior2" viewBox="0 0 40 41">
    <g clip-path="url(#clip0)">
      <path d="M18.6012 24.785C17.4401 24.785 16.5 25.7463 16.5 26.9275V35.5H20.7V26.9275C20.7 25.745 19.7599 24.785 18.6012 24.785Z" fill="none" stroke-linecap="round" stroke-linejoin="round" />
      <path d="M35.3998 24.785C34.2411 24.785 33.2998 25.7463 33.2998 26.9275V35.5H37.4998V26.9275C37.4998 25.745 36.561 24.785 35.3998 24.785Z" fill="none" stroke-linecap="round" stroke-linejoin="round" />
      <path d="M33.3002 29.5H20.7002V31.5H33.3002V29.5Z" fill="none" stroke-linecap="round" stroke-linejoin="round" />
      <path d="M29 19.5H25.0012C22.7906 19.5 21 21.7371 21 24.4993V29.5H33V24.4993C33 21.7371 31.2082 19.5 29 19.5Z" fill="none" stroke-linecap="round" stroke-linejoin="round" />
      <path d="M24.735 24.785C24.735 24.7015 24.8034 24.6238 24.9002 24.6238C24.997 24.6238 25.0654 24.7015 25.0654 24.785C25.0654 24.8685 24.997 24.9463 24.9002 24.9463C24.8034 24.9463 24.735 24.8685 24.735 24.785Z" />
      <path d="M28.9366 24.785C28.9366 24.7022 29.0045 24.625 29.1006 24.625C29.1968 24.625 29.2646 24.7022 29.2646 24.785C29.2646 24.8678 29.1968 24.945 29.1006 24.945C29.0045 24.945 28.9366 24.8678 28.9366 24.785Z" />
      <path d="M8.5 5V25M8.5 25L4 20M8.5 25L13 20" />
      <path d="M0 35.5H40" fill="none" stroke-linecap="round" stroke-linejoin="round" />
    </g>
    <defs>
      <clipPath id="clip0">
        <rect y="0.5" width="40" height="40" fill="white" />
      </clipPath>
    </defs>
  </symbol>

  <symbol id="interior3" viewBox="0 0 42 31">
    <path d="M19.6012 19.785C18.4401 19.785 17.5 20.7463 17.5 21.9275V30.5H21.7V21.9275C21.7 20.745 20.7599 19.785 19.6012 19.785Z" fill="none" stroke-linecap="round" stroke-linejoin="round" />
    <path d="M36.3998 19.785C35.2411 19.785 34.2998 20.7463 34.2998 21.9275V30.5H38.4998V21.9275C38.4998 20.745 37.561 19.785 36.3998 19.785Z" fill="none" stroke-linecap="round" stroke-linejoin="round" />
    <path d="M34.3002 24.5H21.7002V26.5H34.3002V24.5Z" fill="none" stroke-linecap="round" stroke-linejoin="round" />
    <path d="M30 14.5H26.0012C23.7906 14.5 22 16.7371 22 19.4993V24.5H34V19.4993C34 16.7371 32.2082 14.5 30 14.5Z" fill="none" stroke-linecap="round" stroke-linejoin="round" />
    <path d="M25.735 19.785C25.735 19.7015 25.8034 19.6238 25.9002 19.6238C25.997 19.6238 26.0654 19.7015 26.0654 19.785C26.0654 19.8685 25.997 19.9463 25.9002 19.9463C25.8034 19.9463 25.735 19.8685 25.735 19.785Z" />
    <path d="M29.9366 19.785C29.9366 19.7022 30.0045 19.625 30.1006 19.625C30.1968 19.625 30.2646 19.7022 30.2646 19.785C30.2646 19.8678 30.1968 19.945 30.1006 19.945C30.0045 19.945 29.9366 19.8678 29.9366 19.785Z" />
    <path d="M1 30.5H41" fill="none" stroke-linecap="round" stroke-linejoin="round" />
    <path d="M10.5 1.61804L12.1574 6.71885L12.2696 7.06434H12.6329H17.9962L13.6572 10.2168L13.3633 10.4303L13.4755 10.7758L15.1329 15.8766L10.7939 12.7242L10.5 12.5106L10.2061 12.7242L5.8671 15.8766L7.52445 10.7758L7.63671 10.4303L7.34281 10.2168L3.0038 7.06434H8.36712H8.73039L8.84265 6.71885L10.5 1.61804Z" fill="none" />
  </symbol>

  <symbol id="check" viewBox="0 0 12 9">
    <path d="M4.54225 8.84014C4.54525 8.83714 4.54875 8.83564 4.55275 8.83314C4.60875 8.79664 4.65925 8.75464 4.70725 8.70764L11.7052 1.73614C11.9007 1.54164 11.9992 1.28664 11.9992 1.03164C11.9992 0.777139 11.9007 0.522139 11.7052 0.327639C11.3147 -0.0613614 10.6817 -0.0613614 10.2902 0.327639L5.00025 5.59964C4.14572 6.44949 3.30953 5.95375 2.99825 5.59964L1.70875 4.32764C1.31825 3.93864 0.68425 3.93864 0.29325 4.32764C-0.0977502 4.71614 -0.0977502 5.34614 0.29325 5.73564L3.29225 8.70764C3.33875 8.75464 3.39025 8.79614 3.44575 8.83264C3.44925 8.83514 3.45325 8.83664 3.45725 8.83964C3.50775 8.87214 3.56225 8.90114 3.61875 8.92464C3.62325 8.92614 3.62775 8.92764 3.63225 8.92964C3.68775 8.95114 3.74525 8.96914 3.80525 8.98064L3.81575 8.98214C3.87525 8.99264 3.93675 8.99964 3.99975 8.99964C4.06225 8.99964 4.12375 8.99264 4.18275 8.98264L4.19325 8.98114C4.25325 8.96914 4.31125 8.95164 4.36675 8.93014C4.37125 8.92814 4.37525 8.92664 4.37975 8.92514C4.43675 8.90164 4.49075 8.87214 4.54225 8.84014Z" />
  </symbol>

  <symbol id="close" viewBox="0 0 16 16">
    <g clip-path="url(#clip0)">
      <path d="M16.003 1.414L14.589 0L8.001 6.587L1.414 0L0 1.414L6.587 8.001L0 14.589L1.414 16.003L8.001 9.416L14.589 16.003L16.003 14.589L9.416 8.001L16.003 1.414Z" />
    </g>
    <defs>
      <clipPath id="clip0">
        <rect width="16" height="16" fill="white" />
      </clipPath>
    </defs>
  </symbol>

  <symbol id="plus" viewBox="0 0 12 12">
    <g clip-path="url(#clip0)">
      <rect y="5" width="12" height="2" rx="1" />
      <rect x="7" width="12" height="2" rx="1" transform="rotate(90 7 0)"/>
    </g>
    <defs>
      <clipPath id="clip0">
        <rect width="12" height="12" transform="matrix(1 8.74228e-08 8.74228e-08 -1 0 12)" fill="white" />
      </clipPath>
    </defs>
  </symbol>

  <symbol id="minus" viewBox="0 0 12 12">
    <rect width="12" height="2" rx="1" />
  </symbol>
  
  <symbol id="close-two" viewBox="0 0 11 11">
    <path fill-rule="evenodd" clip-rule="evenodd" d="M2.12119 0.707108C1.73067 0.316584 1.0975 0.316584 0.706976 0.707108C0.316452 1.09763 0.316452 1.7308 0.706977 2.12132L4.24252 5.65686L0.706956 9.19242C0.316431 9.58294 0.316431 10.2161 0.706956 10.6066C1.09748 10.9972 1.73065 10.9972 2.12117 10.6066L5.65673 7.07107L9.19226 10.6066C9.58278 10.9971 10.2159 10.9971 10.6065 10.6066C10.997 10.2161 10.997 9.58291 10.6065 9.19239L7.07094 5.65686L10.6065 2.12135C10.997 1.73083 10.997 1.09766 10.6065 0.70714C10.2159 0.316616 9.58276 0.316616 9.19224 0.70714L5.65673 4.24265L2.12119 0.707108Z" />
  </symbol>

</svg>
