<svg width="24" height="24" viewBox="0 0 24 24" fill="none" xmlns="http://www.w3.org/2000/svg">
<path d="M20 0H4C1.79086 0 0 1.79086 0 4V20C0 22.2091 1.79086 24 4 24H20C22.2091 24 24 22.2091 24 20V4C24 1.79086 22.2091 0 20 0Z" fill="url(#paint0_linear)"/>
<path d="M15.6761 3.22149C15.1196 2.99724 14.5451 2.82624 13.9549 2.71224C13.3736 2.59974 12.7826 2.54199 12.1849 2.54199C11.5946 2.54199 11.0044 2.59899 10.4224 2.71224C9.83215 2.82549 9.2584 2.99724 8.7019 3.22149C8.13715 3.44949 7.59715 3.73524 7.09165 4.07049C6.04615 4.75749 5.13565 5.67024 4.45165 6.71049C4.11415 7.21749 3.82765 7.76049 3.6004 8.32374C3.3814 8.87649 3.20365 9.45399 3.09415 10.0412C2.9764 10.6225 2.9254 11.218 2.9254 11.8105C2.9254 12.403 2.9764 12.9992 3.09415 13.579C3.20365 14.1662 3.38065 14.7452 3.6004 15.2972C3.65854 15.4416 3.72033 15.5845 3.78576 15.7258C4.04032 16.2755 4.11831 16.9013 3.92068 17.4739C3.36344 19.0884 4.91116 20.6373 6.52496 20.0781C7.09755 19.8796 7.72332 19.957 8.27272 20.2128C8.41443 20.2787 8.55768 20.3411 8.7019 20.3995C9.2584 20.6237 9.83215 20.7947 10.4224 20.9095C11.0044 21.0205 11.5946 21.0782 12.1849 21.0782C12.7834 21.0782 13.3736 21.0212 13.9549 20.9095C14.5451 20.7955 15.1196 20.6237 15.6761 20.3995C16.2401 20.1707 16.7809 19.885 17.2856 19.5512C17.8084 19.207 18.2981 18.8087 18.7444 18.3632C19.1839 17.9192 19.5791 17.4302 19.9249 16.9097C20.2616 16.4027 20.5489 15.8612 20.7776 15.2972C20.9959 14.7452 21.1729 14.1662 21.2831 13.579C21.4016 12.9992 21.4519 12.403 21.4519 11.8105C21.4519 11.218 21.4024 10.6225 21.2831 10.0412C21.1736 9.45399 20.9959 8.87574 20.7776 8.32299C20.5489 7.75974 20.2616 7.21674 19.9249 6.70974C19.5791 6.18999 19.1839 5.70099 18.7444 5.25624C18.2974 4.81224 17.8084 4.41249 17.2856 4.06899C16.7809 3.73524 16.2401 3.44949 15.6761 3.22149ZM18.5944 7.59249C18.8726 8.01174 19.1089 8.45949 19.2934 8.92449C19.4794 9.38124 19.6226 9.85974 19.7156 10.345C19.8094 10.8265 19.8589 11.3192 19.8589 11.8105C19.8589 12.301 19.8094 12.7945 19.7156 13.276C19.6234 13.7605 19.4801 14.2382 19.2934 14.6957C19.1089 15.1615 18.8726 15.61 18.5944 16.0285C18.0289 16.8895 17.2699 17.647 16.4104 18.2155C15.9881 18.4922 15.5419 18.7285 15.0776 18.916C14.6134 19.102 14.1416 19.2445 13.6526 19.3382C13.1719 19.4305 12.6829 19.4792 12.1856 19.4792C11.6966 19.4792 11.2069 19.4312 10.7269 19.3382C10.2379 19.2445 9.7654 19.1027 9.3019 18.916C8.8384 18.7285 8.3914 18.493 7.9699 18.2155C7.76291 18.078 7.50357 18.045 7.26878 18.1265L7.15588 18.1656C6.33788 18.4493 5.55302 17.6648 5.83633 16.8467L5.87625 16.7314C5.95778 16.496 5.92464 16.2359 5.78665 16.0285C5.5084 15.6092 5.27215 15.1615 5.0869 14.6957C4.9009 14.239 4.75765 13.7612 4.66465 13.276C4.57165 12.7937 4.5214 12.3017 4.5214 11.8105C4.5214 11.3192 4.57165 10.8265 4.66465 10.345C4.75765 9.85974 4.9009 9.38124 5.0869 8.92449C5.27215 8.45949 5.5084 8.01099 5.78665 7.59249C6.3514 6.73224 7.1104 5.97399 7.97065 5.40549C8.39215 5.12874 8.83915 4.89249 9.30265 4.70424C9.7669 4.51899 10.2386 4.37724 10.7276 4.28349C11.2084 4.18974 11.6974 4.14249 12.1864 4.14249C12.6836 4.14249 13.1726 4.18974 13.6534 4.28349C14.1424 4.37724 14.6141 4.51899 15.0784 4.70424C15.5426 4.89249 15.9896 5.12874 16.4111 5.40549C16.8401 5.68974 17.2459 6.02049 17.6081 6.38874C17.9779 6.75699 18.3071 7.16199 18.5944 7.59249Z" fill="white"/>
<path d="M13.3396 9.56277C13.3059 9.63852 13.3149 9.73377 13.3734 9.79152C13.4319 9.84927 13.6359 9.98352 13.7619 10.0795C13.9306 10.2048 14.0986 10.33 14.2599 10.4628C14.3094 10.501 14.3521 10.5393 14.3949 10.5798C14.4361 10.6188 14.5119 10.6683 14.5209 10.7268C14.539 10.807 14.4915 10.8873 14.4623 10.9642C14.2624 11.4884 13.9912 11.9849 13.6524 12.4293C13.6276 12.4548 13.4664 12.6828 13.2639 12.8838C13.0614 13.0848 12.8349 13.2513 12.8094 13.2708C12.3286 13.6368 11.7969 13.924 11.2239 14.1235C11.1901 14.137 11.1474 14.1528 11.1054 14.1438C11.0461 14.1318 10.9959 14.0635 10.9621 14.0193C10.9194 13.975 10.8774 13.9285 10.8436 13.8813C10.7086 13.72 10.5819 13.5528 10.4559 13.3848C10.3629 13.2558 10.2279 13.0578 10.1694 12.9993C10.1109 12.9408 10.0179 12.9303 9.94136 12.964C9.84836 13.0053 8.07761 13.7875 7.87587 13.9105C7.71537 14.0028 7.84211 14.9725 7.95161 15.1818C8.22161 15.715 8.80362 16.0503 9.38561 16.156C9.75686 16.222 10.1274 16.2115 10.4986 16.159C10.9374 16.096 11.3671 15.9715 11.7804 15.8088C12.2446 15.6228 12.6999 15.3843 13.1206 15.1068C13.5814 14.8015 14.009 14.4498 14.4026 14.061C14.4082 14.0554 14.414 14.0484 14.42 14.0433C14.426 14.0382 14.4317 14.0319 14.4373 14.0263C14.8291 13.6334 15.1808 13.2028 15.4816 12.739C15.7599 12.3168 15.9976 11.8683 16.1904 11.3988C16.3501 10.987 16.4776 10.558 16.5361 10.1193C16.5856 9.75177 16.6036 9.37302 16.5361 9.00627C16.4266 8.42502 16.0891 7.83852 15.5574 7.56852C15.3466 7.46277 14.3769 7.33527 14.2846 7.49127C14.1661 7.69977 13.3824 9.46827 13.3396 9.56277Z" fill="white"/>
<defs>
<linearGradient id="paint0_linear" x1="11.9996" y1="0.15015" x2="11.9996" y2="23.9108" gradientUnits="userSpaceOnUse">
<stop stop-color="#64BD62"/>
<stop offset="1" stop-color="#2BA048"/>
</linearGradient>
</defs>
</svg>
