<svg width="24" height="24" viewBox="0 0 24 24" fill="none" xmlns="http://www.w3.org/2000/svg">
  <path d="M4.631 24H0V22.482H3.148V10.166H0.045V8.647H4.631V24Z" fill="#404355" />
  <path d="M22.245 11.031C22.057 11.245 21.767 11.346 21.368 11.339V11.34H20.782C20.373 11.34 20.041 11.68 20.041 12.1C20.041 12.519 20.373 12.859 20.782 12.859H21.45C21.474 12.859 21.496 12.855 21.52 12.853C22.463 12.818 23.035 12.403 23.348 12.045C23.695 11.65 23.872 11.183 23.967 10.75H22.41C22.366 10.853 22.315 10.95 22.245 11.031Z" fill="#404355" />
  <path d="M19.1108 21.596H6.63379V23.114H19.1118C20.8858 23.114 21.6998 21.829 21.9508 20.948H20.3408C20.1438 21.262 19.7798 21.596 19.1108 21.596Z" fill="#404355" />
  <path d="M13.7728 9.442L23.9998 9.426C23.9158 9.111 23.7928 8.856 23.6198 8.628C23.2798 8.175 22.7658 7.916 22.2088 7.916C22.1388 7.916 22.0818 7.919 22.0398 7.925H16.0608C16.8018 5.467 16.4848 2.595 16.4698 2.471C16.3018 0.649 15.1668 0 14.1618 0C14.0158 0 13.8968 0.014 13.8198 0.025C12.2538 0.06 11.5898 1.296 11.5248 2.13L11.5238 2.19C11.5238 6.57 8.24179 8.365 6.63379 8.982V10.582H6.67179V10.568C8.33079 10.002 12.9818 7.91 13.0058 2.235C13.0428 1.965 13.2088 1.543 13.8868 1.543L14.0328 1.528C14.0508 1.525 14.0968 1.519 14.1618 1.519C14.4748 1.519 14.9018 1.632 14.9948 2.631C14.9988 2.666 15.3848 6.142 14.3088 8.344L13.7728 9.442Z" fill="#404355" />
  <path d="M21.8085 14.453C21.6215 14.666 21.3305 14.767 20.9325 14.762H20.3465C19.9365 14.762 19.6055 15.102 19.6055 15.522C19.6055 15.94 19.9365 16.282 20.3465 16.282H21.0145C21.0375 16.282 21.0595 16.276 21.0825 16.274C22.0275 16.241 22.5995 15.825 22.9125 15.469C23.2565 15.074 23.4355 14.608 23.5275 14.178H21.9705C21.9295 14.279 21.8775 14.375 21.8085 14.453Z" fill="#404355" />
  <path d="M21.119 17.834C20.932 18.049 20.641 18.15 20.243 18.143V18.145H19.657C19.247 18.145 18.915 18.485 18.915 18.903C18.915 19.323 19.247 19.663 19.657 19.663H20.325C20.348 19.663 20.37 19.659 20.393 19.657C21.338 19.624 21.91 19.208 22.223 18.848C22.562 18.463 22.74 18.002 22.834 17.578H21.274C21.232 17.672 21.185 17.76 21.119 17.834Z" fill="#404355" />
</svg>
