<svg width="12" height="9" viewBox="0 0 12 9" fill="none" xmlns="http://www.w3.org/2000/svg">
<path d="M4.54225 8.84014C4.54525 8.83714 4.54875 8.83564 4.55275 8.83314C4.60875 8.79664 4.65925 8.75464 4.70725 8.70764L11.7052 1.73614C11.9007 1.54164 11.9992 1.28664 11.9992 1.03164C11.9992 0.777139 11.9007 0.522139 11.7052 0.327639C11.3147 -0.0613614 10.6817 -0.0613614 10.2902 0.327639L5.00025 5.59964C4.14572 6.44949 3.30953 5.95375 2.99825 5.59964L1.70875 4.32764C1.31825 3.93864 0.68425 3.93864 0.29325 4.32764C-0.0977502 4.71614 -0.0977502 5.34614 0.29325 5.73564L3.29225 8.70764C3.33875 8.75464 3.39025 8.79614 3.44575 8.83264C3.44925 8.83514 3.45325 8.83664 3.45725 8.83964C3.50775 8.87214 3.56225 8.90114 3.61875 8.92464C3.62325 8.92614 3.62775 8.92764 3.63225 8.92964C3.68775 8.95114 3.74525 8.96914 3.80525 8.98064L3.81575 8.98214C3.87525 8.99264 3.93675 8.99964 3.99975 8.99964C4.06225 8.99964 4.12375 8.99264 4.18275 8.98264L4.19325 8.98114C4.25325 8.96914 4.31125 8.95164 4.36675 8.93014C4.37125 8.92814 4.37525 8.92664 4.37975 8.92514C4.43675 8.90164 4.49075 8.87214 4.54225 8.84014Z" fill="#CC0F14"/>
</svg>
