<svg width="26" height="26" viewBox="0 0 26 26" fill="none" xmlns="http://www.w3.org/2000/svg">
  <path d="M25.9858 14.1343C25.9988 14.0281 25.9771 13.9187 25.9241 13.8168C22.1053 6.69283 18.3299 3.2565 17.3311 3.25867C17.3072 3.25542 17.2834 3.25108 17.2596 3.25108H14.6097C14.6054 3.25108 14.6011 3.25 14.5967 3.25H6.19873C5.87373 3.25 5.61048 3.50567 5.61048 3.82092C5.61048 4.13617 5.87373 4.39183 6.19873 4.39183H9.14106V4.39292H17.1566C17.1881 4.39725 17.2184 4.40158 17.2476 4.40267C17.2801 4.40267 20.7208 6.88567 23.5115 12.0683H17.9496C17.0342 12.0683 16.9508 11.2623 16.9465 11.0186V6.88025C16.9465 6.565 16.6832 6.30933 16.3582 6.30933C16.0321 6.30933 15.77 6.565 15.77 6.88025V11.0186C15.77 11.8993 16.3517 13.2091 17.9496 13.2091H24.2373C24.4334 13.5363 24.6273 13.8807 24.8256 14.2437C24.8245 14.248 24.8245 14.2523 24.8245 14.2567V18.9042C24.8245 19.3093 24.4854 19.6376 24.0683 19.6376H23.2926C23.0218 18.5239 21.9894 17.6898 20.7587 17.6898C19.527 17.6898 18.4946 18.5239 18.2237 19.6376H13.7528C13.482 18.5239 12.4485 17.6898 11.2178 17.6898C9.98715 17.6898 8.95581 18.5239 8.6839 19.6376H7.72623C7.30915 19.6376 6.97006 19.3093 6.97006 18.9042V17.9281H7.95156C8.27656 17.9281 8.53981 17.6735 8.53981 17.3583C8.53981 17.043 8.27656 16.7863 7.95156 16.7863H4.72106C4.39606 16.7863 4.13281 17.0419 4.13281 17.3572C4.13281 17.6724 4.39606 17.927 4.72106 17.927H5.79356V18.9031C5.79356 19.9377 6.66023 20.7783 7.72623 20.7783H8.67848C8.94173 21.9061 9.97956 22.75 11.2178 22.75C12.4571 22.75 13.4939 21.9061 13.7582 20.7805H18.2183C18.4816 21.9061 19.5183 22.75 20.7587 22.75C21.997 22.75 23.0359 21.9061 23.2981 20.7805H24.0683C25.1332 20.7805 25.9999 19.9388 25.9999 18.9042V14.2567C25.9999 14.2144 25.9956 14.1743 25.9858 14.1343ZM11.2178 21.6082C10.635 21.6082 10.1345 21.268 9.91131 20.7794C9.83331 20.6093 9.78781 20.4198 9.78781 20.2193C9.78781 20.0124 9.83873 19.8153 9.92323 19.6365C10.1507 19.162 10.6436 18.8294 11.2167 18.8294C11.7909 18.8294 12.2838 19.1631 12.5113 19.6365C12.598 19.8153 12.6489 20.0124 12.6489 20.2193C12.6489 20.4198 12.6023 20.6082 12.5243 20.7794C12.3011 21.268 11.8017 21.6082 11.2178 21.6082ZM20.7587 21.6082C20.1748 21.6082 19.6743 21.268 19.4511 20.7794C19.3731 20.6093 19.3287 20.4198 19.3287 20.2193C19.3287 20.0124 19.3796 19.8153 19.4641 19.6365C19.6916 19.162 20.1846 18.8294 20.7587 18.8294C21.3329 18.8294 21.8258 19.1631 22.0522 19.6365C22.1378 19.8153 22.1898 20.0124 22.1898 20.2193C22.1898 20.4198 22.1421 20.6082 22.0652 20.7794C21.8421 21.268 21.3416 21.6082 20.7587 21.6082Z" fill="#404355" />
  <path d="M2.58239 8.41208H10.1906C10.5156 8.41208 10.7778 8.15641 10.7778 7.84225C10.7778 7.527 10.5146 7.27133 10.1906 7.27133H2.58239C2.25847 7.27133 1.99414 7.527 1.99414 7.84225C1.99414 8.15641 2.25739 8.41208 2.58239 8.41208Z" fill="#404355" />
  <path d="M10.7792 14.1873C10.7792 13.871 10.5159 13.6153 10.192 13.6153H0.58825C0.26325 13.6153 0 13.871 0 14.1873C0 14.5026 0.264333 14.7572 0.58825 14.7572H10.1909C10.5159 14.7572 10.7792 14.5026 10.7792 14.1873Z" fill="#404355" />
  <path d="M4.5752 11.0142C4.5752 11.3295 4.83736 11.5852 5.16236 11.5852H12.4326C12.7565 11.5852 13.0198 11.3295 13.0198 11.0142C13.0198 10.6979 12.7565 10.4433 12.4326 10.4433H5.16236C4.83736 10.4433 4.5752 10.6979 4.5752 11.0142Z" fill="#404355" />
</svg>
