<svg width="16" height="16" viewBox="0 0 16 16" fill="none" xmlns="http://www.w3.org/2000/svg">
  <g clip-path="url(#clip0)">
    <path d="M8.00257 0.147339C4.3419 0.147339 1.24857 2.61334 0.295898 5.96867H1.46257C2.37723 3.23667 4.96257 1.26134 8.00257 1.26134C11.8052 1.26134 14.8979 4.35067 14.8979 8.14734C14.8979 11.9447 11.8046 15.0333 8.00257 15.0333C4.96257 15.0333 2.3779 13.058 1.46257 10.3253H0.295898C1.24857 13.6813 4.34123 16.1473 8.00257 16.1473C12.4192 16.1473 16.0132 12.558 16.0132 8.14734C16.0132 3.73667 12.4199 0.147339 8.00257 0.147339Z" fill="#CC0F14" />
    <path d="M6.59034 4.58734L5.90167 5.46401L8.61367 7.59001H0.0136719V8.70401H8.61367L5.90167 10.83L6.59034 11.7067L11.1303 8.14734L6.59034 4.58734Z" fill="#CC0F14" />
  </g>
  <defs>
    <clipPath id="clip0">
      <rect width="16" height="16" fill="white" />
    </clipPath>
  </defs>
</svg>
