<svg width="42" height="31" viewBox="0 0 42 31" fill="none" xmlns="http://www.w3.org/2000/svg">
  <path d="M19.6012 19.785C18.4401 19.785 17.5 20.7463 17.5 21.9275V30.5H21.7V21.9275C21.7 20.745 20.7599 19.785 19.6012 19.785Z" fill="none" stroke-linecap="round" stroke-linejoin="round" />
  <path d="M36.3998 19.785C35.2411 19.785 34.2998 20.7463 34.2998 21.9275V30.5H38.4998V21.9275C38.4998 20.745 37.561 19.785 36.3998 19.785Z" fill="none" stroke-linecap="round" stroke-linejoin="round" />
  <path d="M34.3002 24.5H21.7002V26.5H34.3002V24.5Z" fill="none" stroke-linecap="round" stroke-linejoin="round" />
  <path d="M30 14.5H26.0012C23.7906 14.5 22 16.7371 22 19.4993V24.5H34V19.4993C34 16.7371 32.2082 14.5 30 14.5Z" fill="none" stroke-linecap="round" stroke-linejoin="round" />
  <path d="M25.735 19.785C25.735 19.7015 25.8034 19.6238 25.9002 19.6238C25.997 19.6238 26.0654 19.7015 26.0654 19.785C26.0654 19.8685 25.997 19.9463 25.9002 19.9463C25.8034 19.9463 25.735 19.8685 25.735 19.785Z" />
  <path d="M29.9366 19.785C29.9366 19.7022 30.0045 19.625 30.1006 19.625C30.1968 19.625 30.2646 19.7022 30.2646 19.785C30.2646 19.8678 30.1968 19.945 30.1006 19.945C30.0045 19.945 29.9366 19.8678 29.9366 19.785Z" />
  <path d="M1 30.5H41" fill="none" stroke-linecap="round" stroke-linejoin="round" />
  <path d="M10.5 1.61804L12.1574 6.71885L12.2696 7.06434H12.6329H17.9962L13.6572 10.2168L13.3633 10.4303L13.4755 10.7758L15.1329 15.8766L10.7939 12.7242L10.5 12.5106L10.2061 12.7242L5.8671 15.8766L7.52445 10.7758L7.63671 10.4303L7.34281 10.2168L3.0038 7.06434H8.36712H8.73039L8.84265 6.71885L10.5 1.61804Z" fill="none" />
</svg>
