<svg width="16" height="12" viewBox="0 0 16 12" fill="none" xmlns="http://www.w3.org/2000/svg">
  <path d="M16.0004 10.4759V2.55322L11.3311 6.51389L16.0004 10.4759Z" fill="#CC0F14" />
  <path d="M9.50547 8.06342C9.45213 8.10809 9.39746 8.15142 9.34146 8.19076C9.2908 8.22676 9.24013 8.25876 9.18813 8.28876C9.18146 8.29276 9.17613 8.29676 9.17013 8.30076C8.9928 8.40409 8.8068 8.48142 8.61479 8.53476C8.61213 8.53476 8.60946 8.53609 8.60679 8.53809C8.55079 8.55209 8.49413 8.56409 8.43679 8.57676C8.42679 8.57809 8.41679 8.58076 8.40679 8.58342C8.35812 8.59142 8.30946 8.59676 8.26079 8.60142C8.24212 8.60476 8.22279 8.60876 8.20412 8.61009C8.16079 8.61409 8.11679 8.61409 8.07346 8.61542C8.04946 8.61676 8.02612 8.61942 8.00212 8.61942C7.97812 8.61942 7.95412 8.61676 7.93079 8.61542C7.88746 8.61409 7.84346 8.61409 7.80012 8.61009C7.78145 8.60876 7.76279 8.60476 7.74412 8.60276C7.69479 8.59609 7.64612 8.59076 7.59679 8.58342C7.58812 8.58076 7.57945 8.57809 7.57012 8.57676C7.51212 8.56542 7.45345 8.55276 7.39612 8.53809H7.39545C7.20078 8.48476 7.01145 8.40609 6.83278 8.30142C6.83278 8.30142 6.83278 8.30142 6.83212 8.30142C6.77412 8.26676 6.71678 8.23009 6.66078 8.19142C6.60478 8.15142 6.54945 8.10876 6.49678 8.06409L5.66544 7.35809L0.191406 11.9994H15.8088L10.3375 7.35742L9.50547 8.06342Z" fill="#CC0F14" />
  <path d="M0 0V0.866L5.66333 5.67067L7.30733 7.066C7.69533 7.39533 8.304 7.39533 8.69267 7.066L10.3373 5.67067L16 0.866V0H0Z" fill="#CC0F14" />
  <path d="M0 2.55322V10.4759L4.66867 6.51389L0 2.55322Z" fill="#CC0F14" />
</svg>
