<svg width="24" height="24" viewBox="0 0 24 24" fill="none" xmlns="http://www.w3.org/2000/svg">
  <path d="M4.19994 10.461C4.67711 10.461 5.06394 10.0854 5.06394 9.622C5.06394 9.15864 4.67711 8.783 4.19994 8.783C3.72276 8.783 3.33594 9.15864 3.33594 9.622C3.33594 10.0854 3.72276 10.461 4.19994 10.461Z" fill="#404355" />
  <path d="M22.079 5.78H18.431V0H5.568V5.78H1.92C0.864 5.78 0 6.62 0 7.646V16.596C0 17.621 0.864 18.461 1.92 18.461H4.021V17.155H1.92C1.607 17.155 1.344 16.899 1.344 16.595V7.645C1.344 7.341 1.607 7.085 1.92 7.085H22.079C22.392 7.085 22.656 7.341 22.656 7.645V16.595C22.656 16.899 22.391 17.155 22.079 17.155H19.968V18.461H22.079C23.136 18.461 24 17.621 24 16.596V7.646C24 6.62 23.136 5.78 22.079 5.78ZM17.087 5.78H6.911V1.305H17.087V5.78Z" fill="#404355" />
  <path d="M20.1896 13.146H3.80859V14.451H5.56759V22.135H6.91059V14.451H8.44659V20.768H9.79159V14.451H11.3276V24H12.6706V14.451H14.2066V19.897H15.5516V14.451H17.0866V22.259H18.4306V14.451H20.1896V13.146Z" fill="#404355" />
</svg>
