<svg width="16" height="16" viewBox="0 0 16 16" fill="none" xmlns="http://www.w3.org/2000/svg">
  <path d="M8 16C3.58933 16 0 12.4113 0 8C0 3.58867 3.58933 0 8 0C12.4113 0 16 3.58867 16 8C16 12.4113 12.4113 16 8 16ZM8 1.114C4.20333 1.114 1.114 4.20333 1.114 8C1.114 11.7967 4.20333 14.886 8 14.886C11.7967 14.886 14.886 11.7967 14.886 8C14.886 4.20333 11.7967 1.114 8 1.114Z" fill="#CC0F14" />
  <path d="M6.54661 12.08L3.72461 9.25869L4.51261 8.47069L6.54661 10.5047L11.4873 5.56403L12.2753 6.35136L6.54661 12.08Z" fill="#CC0F14" />
</svg>
