<svg width="24" height="16" viewBox="0 0 24 16" fill="none" xmlns="http://www.w3.org/2000/svg">
  <path fill-rule="evenodd" clip-rule="evenodd" d="M0 0H24V11H23V1H1V15H19V16H0V0ZM2 2H22V8.5H21V3H3V13H16.5V14H2V2Z" fill="#CC0F14" />
  <path fill-rule="evenodd" clip-rule="evenodd" d="M13.0373 4H13.5106C15.0063 4 16.524 4.3225 17.6845 5.08678C18.8224 5.83625 19.5949 7.00001 19.6532 8.60729L21.2642 10.3813L20.894 10.7174L21.2642 10.3813L23.87 13.2508L23.1297 13.9231L20.894 11.4611L19.8321 12.6304L22.1328 15.1639L21.3925 15.8361L18.7866 12.9666L19.1333 12.6517L18.7866 12.9666L17.1525 11.1672C14.7597 10.5376 12.8338 7.7064 13.0114 4.47258L13.0373 4ZM18.0949 10.7174L19.1567 11.8867L20.2186 10.7174L19.1567 9.54809L18.0949 10.7174ZM18.6527 8.6156C18.5992 7.36645 18.0128 6.50042 17.1344 5.92192C16.3023 5.37387 15.1914 5.07637 14.0009 5.01294C14.047 7.58223 15.5836 9.6195 17.2544 10.1554L18.6527 8.6156Z" fill="#CC0F14" />
</svg>
