<svg width="16" height="16" viewBox="0 0 16 16" fill="none" xmlns="http://www.w3.org/2000/svg">
<g opacity="0.6" clip-path="url(#clip0)">
<path d="M0 2.84267C0 4.14867 0 7.78 0 9.728C0 11.4793 0.782667 12.2967 2.864 12.2967H3.17533V15.106C3.17933 16.0967 3.72267 16.2953 4.38267 15.5453L8.242 12.2967H13.1753C14.8487 12.2913 16.004 11.1247 15.998 9.47267C15.998 9.47267 15.9993 4.738 15.9993 2.78733C16 0.835334 14.9587 0 13.1347 0C11.3107 0 5.27333 0.036 2.82333 0.036C0.614667 0.036 0 1.204 0 2.84267ZM10.3233 6.396C10.32 5.792 10.8153 5.29867 11.4267 5.29667C12.0367 5.29467 12.534 5.784 12.5367 6.388C12.5387 6.98533 12.044 7.47733 11.4353 7.478C10.8233 7.482 10.3253 6.994 10.3233 6.396ZM6.90067 6.40733C6.89867 5.80467 7.394 5.31133 8.00533 5.308C8.61533 5.306 9.114 5.79533 9.11667 6.39933C9.11933 6.99867 8.62267 7.488 8.01333 7.49067C7.40267 7.49333 6.90267 7.008 6.90067 6.40733ZM3.48333 6.41933C3.48133 5.816 3.97667 5.322 4.586 5.32C5.19467 5.318 5.69133 5.80733 5.694 6.41133C5.696 7.01067 5.20267 7.50067 4.59467 7.502C3.98533 7.50533 3.48533 7.018 3.48333 6.41933Z" fill="#404355"/>
</g>
<defs>
<clipPath id="clip0">
<rect width="16" height="16" fill="white"/>
</clipPath>
</defs>
</svg>
