<svg width="16" height="16" viewBox="0 0 16 16" fill="none" xmlns="http://www.w3.org/2000/svg">
<g clip-path="url(#clip0)">
<path d="M13.1347 0C11.3113 0 5.27333 0.036 2.82333 0.036C0.614667 0.036 0 1.204 0 2.84267C0 4.14867 0 7.78 0 9.728C0 11.4793 0.782667 12.2967 2.864 12.2967H3.17533V15.106C3.17933 16.0967 3.72267 16.2953 4.38267 15.5453L8.242 12.2967H13.1753C14.8487 12.2913 16.004 11.1247 15.998 9.47267C15.998 9.47267 15.9993 4.738 15.9993 2.78733C16 0.835334 14.9587 0 13.1347 0ZM10.958 6.26067L5.30467 9.104C5.05867 9.22933 4.858 9.122 4.858 8.86867V3.15733C4.858 2.90333 5.05733 2.798 5.30333 2.92333L10.9593 5.80867C11.2047 5.93333 11.204 6.13667 10.958 6.26067Z" fill="#CC0F14"/>
</g>
<defs>
<clipPath id="clip0">
<rect width="16" height="16" fill="white"/>
</clipPath>
</defs>
</svg>
