<svg width="24" height="24" viewBox="0 0 24 24" fill="none" xmlns="http://www.w3.org/2000/svg">
<path d="M20 0H4C1.79086 0 0 1.79086 0 4V20C0 22.2091 1.79086 24 4 24H20C22.2091 24 24 22.2091 24 20V4C24 1.79086 22.2091 0 20 0Z" fill="#CC0F14"/>
<path d="M19.9255 15.2445C19.644 14.872 16.6485 13.345 15.9865 13.336C15.624 13.341 15.2875 13.523 15.085 13.8235L14.922 14.0755C14.6305 14.4815 14.3295 14.8875 14.1105 15.139C14.031 15.2055 13.9295 15.24 13.8265 15.2365C13.1615 15.2395 11.144 13.83 10.667 13.4015C9.87203 12.6545 9.19053 11.7955 8.64503 10.851C8.55603 10.729 8.56403 10.6965 8.75903 10.461C8.85403 10.343 8.95703 10.232 9.06753 10.128C9.16803 10.022 9.26253 9.9105 9.35203 9.795C9.53503 9.615 9.68353 9.4025 9.79053 9.1695C10.072 8.499 8.63553 4.5 7.43453 4.5C6.61403 4.5 6.01753 4.504 5.37153 5.1335C4.44253 6.0055 3.93853 7.2385 3.99103 8.512C4.10803 10.021 4.67403 11.461 5.61553 12.6455C7.43003 15.269 9.25803 17.0665 12.1855 18.4365C13.427 19.0165 14.7595 19.3765 16.124 19.5C17.438 19.5 19.2775 18.635 19.7305 17.356C20.021 16.692 20.0895 15.951 19.9255 15.2445Z" fill="white"/>
</svg>
